<?xml version="1.0" encoding="UTF-8" standalone="no"?>
<!-- Generator: Adobe Illustrator 16.0.4, SVG Export Plug-In . SVG Version: 6.00 Build 0)  -->

<svg
   xmlns:dc="http://purl.org/dc/elements/1.1/"
   xmlns:cc="http://creativecommons.org/ns#"
   xmlns:rdf="http://www.w3.org/1999/02/22-rdf-syntax-ns#"
   xmlns:svg="http://www.w3.org/2000/svg"
   xmlns="http://www.w3.org/2000/svg"
   xmlns:sodipodi="http://sodipodi.sourceforge.net/DTD/sodipodi-0.dtd"
   xmlns:inkscape="http://www.inkscape.org/namespaces/inkscape"
   version="1.1"
   id="Logo_xA0_Image_1_"
   x="0px"
   y="0px"
   width="385.99966"
   height="241.37192"
   viewBox="0 0 385.99967 241.37192"
   enable-background="new 0 0 1730.553 373.771"
   xml:space="preserve"
   inkscape:version="0.48.2 r9819"
   sodipodi:docname="icon.svg"
   inkscape:export-filename="/Users/lk/www/whfn/src/img/icons/icon2.png"
   inkscape:export-xdpi="68.976578"
   inkscape:export-ydpi="68.976578"><metadata
   id="metadata75"><rdf:RDF><cc:Work
       rdf:about=""><dc:format>image/svg+xml</dc:format><dc:type
         rdf:resource="http://purl.org/dc/dcmitype/StillImage" /><dc:title></dc:title></cc:Work></rdf:RDF></metadata><defs
   id="defs73">
	
	
	
	
	
</defs><sodipodi:namedview
   pagecolor="#ffffff"
   bordercolor="#666666"
   borderopacity="1"
   objecttolerance="10"
   gridtolerance="10"
   guidetolerance="10"
   inkscape:pageopacity="0"
   inkscape:pageshadow="2"
   inkscape:window-width="1280"
   inkscape:window-height="752"
   id="namedview71"
   showgrid="false"
   inkscape:zoom="0.40680638"
   inkscape:cx="458.97171"
   inkscape:cy="-38.056234"
   inkscape:window-x="0"
   inkscape:window-y="0"
   inkscape:window-maximized="1"
   inkscape:current-layer="Logo_xA0_Image_1_"
   fit-margin-top="0"
   fit-margin-left="0"
   fit-margin-right="0"
   fit-margin-bottom="0" />
<path
   style="fill:#ff897a;fill-opacity:1;stroke:#ffffff;stroke-width:1.10399997;stroke-linecap:square;stroke-linejoin:miter;stroke-miterlimit:15;stroke-opacity:1;stroke-dasharray:none;stroke-dashoffset:0"
   d="M 0.54569089,3.0101716 48.483887,240.22375 l 68.416643,0 38.16438,-147.490305 9.77382,38.716205 L 206.72646,80.442585 187.17885,0.55199962 122.95098,1.7810856 89.440791,138.20962 61.05021,3.0101716 z"
   id="path3052"
   inkscape:connector-curvature="0"
   inkscape:export-filename="/Users/lk/www/whfn/src/img/icon2.png"
   inkscape:export-xdpi="68.976578"
   inkscape:export-ydpi="68.976578" />











<path
   clip-rule="evenodd"
   d="M 244.13167,183.17591"
   id="path57"
   style="fill:#ff897a;fill-opacity:1;stroke:#b0e2ff;stroke-width:1;stroke-miterlimit:15;stroke-opacity:1;stroke-dasharray:none"
   inkscape:connector-curvature="0" />
<path
   d="M 267.53509,240.87091 292.08283,2.4619146 h -44.96038 l -6.32002,15.4560004 c 6.99405,14.294 5.77852,33.281 2.03801,47.973 3.88062,0.251 7.39241,-4.326 11.28061,-4.782 -2.03801,5.704 -5.63539,9.16 -10.26123,11.74 0.82626,4.366 3.46863,9.068 6.22005,12.147 3.16721,3.541 4.88107,5.508 6.80018,10.515 2.01983,5.266995 2.244,7.414995 -2.39851,10.094995 -2.40304,1.386 -6.34274,1.231 -6.30336,5.31 2.37124,1.073 3.73749,3.449 4.98483,6.136 2.38336,5.137 -8.32243,3.754 -10.03554,6.045 -2.44773,3.276 5.99663,2.704 5.37334,6.443 -0.52332,3.134 -7.58705,3.432 -9.6652,5.381 3.91243,7.717 7.30229,16.393 -1.96606,21.89 -2.86654,1.702 -6.99254,1.108 -10.17186,1.108 -4.92046,-0.002 -7.77564,-1.999 -12.26592,-3.693 -9.25321,-3.485 -22.69225,-4.773 -31.41531,0.95 -0.77098,0.51 -4.29792,2.86 -4.61903,3.877 l 22.12726,81.819 h 67.0104 z"
   id="path59"
   style="fill:#ff897a;fill-opacity:1;stroke:#ffffff;stroke-width:0.99999994;stroke-miterlimit:15;stroke-opacity:1;stroke-dasharray:none"
   inkscape:export-filename="/Users/lk/www/whfn/src/img/icon2.png"
   inkscape:export-xdpi="68.976578"
   inkscape:export-ydpi="68.976578"
   inkscape:connector-curvature="0" />




</svg>