<?xml version="1.0" encoding="UTF-8" standalone="no"?>
<!-- Created with Inkscape (http://www.inkscape.org/) -->

<svg
   xmlns:dc="http://purl.org/dc/elements/1.1/"
   xmlns:cc="http://creativecommons.org/ns#"
   xmlns:rdf="http://www.w3.org/1999/02/22-rdf-syntax-ns#"
   xmlns:svg="http://www.w3.org/2000/svg"
   xmlns="http://www.w3.org/2000/svg"
   xmlns:sodipodi="http://sodipodi.sourceforge.net/DTD/sodipodi-0.dtd"
   xmlns:inkscape="http://www.inkscape.org/namespaces/inkscape"
   id="svg3311"
   version="1.1"
   inkscape:version="0.48.2 r9819"
   width="48"
   height="48"
   sodipodi:docname="icon.png"
   inkscape:export-filename="/Users/lk/www/whfn/src/img/icons/icon.png"
   inkscape:export-xdpi="562.5"
   inkscape:export-ydpi="562.5">
  <metadata
     id="metadata3317">
    <rdf:RDF>
      <cc:Work
         rdf:about="">
        <dc:format>image/svg+xml</dc:format>
        <dc:type
           rdf:resource="http://purl.org/dc/dcmitype/StillImage" />
        <dc:title></dc:title>
      </cc:Work>
    </rdf:RDF>
  </metadata>
  <defs
     id="defs3315">
    <inkscape:perspective
       id="perspective3874"
       inkscape:persp3d-origin="865.27649 : 124.59033 : 1"
       inkscape:vp_z="1730.553 : 186.8855 : 1"
       inkscape:vp_y="0 : 1000 : 0"
       inkscape:vp_x="0 : 186.8855 : 1"
       sodipodi:type="inkscape:persp3d" />
    <inkscape:perspective
       id="perspective3874-0"
       inkscape:persp3d-origin="865.27649 : 124.59033 : 1"
       inkscape:vp_z="1730.553 : 186.8855 : 1"
       inkscape:vp_y="0 : 1000 : 0"
       inkscape:vp_x="0 : 186.8855 : 1"
       sodipodi:type="inkscape:persp3d" />
  </defs>
  <sodipodi:namedview
     pagecolor="#ffffff"
     bordercolor="#666666"
     borderopacity="1"
     objecttolerance="10"
     gridtolerance="10"
     guidetolerance="10"
     inkscape:pageopacity="0"
     inkscape:pageshadow="2"
     inkscape:window-width="877"
     inkscape:window-height="646"
     id="namedview3313"
     showgrid="false"
     inkscape:zoom="6.7498735"
     inkscape:cx="30.176628"
     inkscape:cy="20.887557"
     inkscape:window-x="0"
     inkscape:window-y="0"
     inkscape:window-maximized="0"
     inkscape:current-layer="svg3311" />
  <path
     style="fill:#fe6633;fill-opacity:1;fill-rule:nonzero;stroke:none"
     d="m 0.4671459,10.967289 7.160018,27.08853 10.2940741,0.0093 6.289792,-18.553491 1.486508,5.208976 6.676904,-4.125063 -3.778211,-9.749018 -8.832341,0.02477 -6.107073,15.360593 -4.0135751,-15.261493 z"
     id="path3048"
     inkscape:connector-curvature="0"
     sodipodi:nodetypes="ccccccccccc" />
  <path
     clip-rule="evenodd"
     d="M 28.194692,31.484871"
     id="path37"
     inkscape:connector-curvature="0"
     style="fill:#fe6633;fill-rule:evenodd" />
  <path
     d="m 40.590377,38.10445 7.082022,-27.185147 -9.263497,-0.07007 0.01277,1.762407 c 0.723302,1.629908 0.293169,3.794945 -0.410358,5.470234 0.510209,0.02862 1.040044,-0.493283 1.561281,-0.545278 -0.350693,0.650412 -0.875963,1.04449 -1.524976,1.33868 0.04749,0.497843 0.330656,1.034 0.651271,1.38509 0.369112,0.403772 0.568128,0.628064 0.751215,1.198998 0.192735,0.600583 0.19196,0.845514 -0.460677,1.151107 -0.3378,0.158042 -0.857192,0.140368 -0.909811,0.605485 0.298723,0.122351 0.445916,0.39328 0.57296,0.699672 0.242706,0.585759 -1.155062,0.428059 -1.414349,0.689296 -0.370513,0.373553 0.755577,0.30833 0.620044,0.734678 -0.11372,0.357361 -1.053138,0.391341 -1.355904,0.61358 0.408565,0.87995 0.734351,1.869251 -0.570659,2.496059 -0.403642,0.194074 -0.941475,0.126343 -1.362397,0.126343 -0.651409,-2.29e-4 -1.001102,-0.227942 -1.571569,-0.421103 -1.175652,-0.397386 -2.936635,-0.544253 -4.172655,0.108326 -0.109302,0.05816 -1.350272,0.970272 -1.407203,1.086238 l 2.558867,8.635899 c 3.018757,0.01667 7.595395,0.17591 10.613627,0.119511 z"
     id="path39"
     inkscape:connector-curvature="0"
     style="fill:#fe6633"
     sodipodi:nodetypes="cccccccccccccccccccccc" />
</svg>
