<?xml version="1.0" encoding="UTF-8" standalone="no"?>
<!-- Generator: Adobe Illustrator 16.0.4, SVG Export Plug-In . SVG Version: 6.00 Build 0)  -->

<svg
   xmlns:dc="http://purl.org/dc/elements/1.1/"
   xmlns:cc="http://creativecommons.org/ns#"
   xmlns:rdf="http://www.w3.org/1999/02/22-rdf-syntax-ns#"
   xmlns:svg="http://www.w3.org/2000/svg"
   xmlns="http://www.w3.org/2000/svg"
   xmlns:sodipodi="http://sodipodi.sourceforge.net/DTD/sodipodi-0.dtd"
   xmlns:inkscape="http://www.inkscape.org/namespaces/inkscape"
   version="1.1"
   id="Logo_xA0_Image_1_"
   x="0px"
   y="0px"
   width="1730.553px"
   height="373.771px"
   viewBox="0 0 1730.553 373.771"
   enable-background="new 0 0 1730.553 373.771"
   xml:space="preserve"
   inkscape:version="0.48.2 r9819"
   sodipodi:docname="Whfn logo_final_v2_hands.svg"
   inkscape:export-filename="/Users/lk/Downloads/Whfn logo_final_v2_hands.png"
   inkscape:export-xdpi="68.976578"
   inkscape:export-ydpi="68.976578"><metadata
   id="metadata69"><rdf:RDF><cc:Work
       rdf:about=""><dc:format>image/svg+xml</dc:format><dc:type
         rdf:resource="http://purl.org/dc/dcmitype/StillImage" /><dc:title></dc:title></cc:Work></rdf:RDF></metadata><defs
   id="defs67"><inkscape:perspective
     sodipodi:type="inkscape:persp3d"
     inkscape:vp_x="0 : 186.8855 : 1"
     inkscape:vp_y="0 : 1000 : 0"
     inkscape:vp_z="1730.553 : 186.8855 : 1"
     inkscape:persp3d-origin="865.27649 : 124.59033 : 1"
     id="perspective3874" /></defs><sodipodi:namedview
   pagecolor="#ffffff"
   bordercolor="#666666"
   borderopacity="1"
   objecttolerance="1"
   gridtolerance="1"
   guidetolerance="1"
   inkscape:pageopacity="0"
   inkscape:pageshadow="2"
   inkscape:window-width="1280"
   inkscape:window-height="756"
   id="namedview65"
   showgrid="true"
   inkscape:zoom="0.40680638"
   inkscape:cx="837.30753"
   inkscape:cy="256.09903"
   inkscape:window-x="0"
   inkscape:window-y="0"
   inkscape:window-maximized="0"
   inkscape:current-layer="Logo_xA0_Image_1_"><inkscape:grid
     type="xygrid"
     id="grid3046"
     empspacing="5"
     visible="true"
     enabled="true"
     snapvisiblegridlinesonly="true"
     originx="0px" /></sodipodi:namedview>
<path
   style="fill:#fe6633"
   d="m 1000.375,93 0,0.0625 0,211.09375 80.6562,0 0,-130.3125 -8.5312,-8.5625 c -6.8959,-8.55612 -13.109,-15.93285 -17.5,-23.54331 -12.6046,-22.52455 -39.3238,-37.1914 -54.4688,-48.58169 z"
   id="polygon35"
   inkscape:connector-curvature="0"
   sodipodi:nodetypes="ccccccccc" /><path
   style="fill:#fe6633;fill-opacity:1;fill-rule:nonzero;stroke:none"
   d="m 98.126257,63.042377 62.792113,237.561683 90.27724,0.0815 55.16038,-162.71088 13.03642,45.68181 53.34071,-32.26516 L 344.81344,61.983167 267.35535,62.200441 213.79737,196.91017 178.59902,63.069536 z"
   id="path3048"
   inkscape:connector-curvature="0" />

<g
   id="g7">
	<path
   fill="#FE6633"
   d="M664.012,200.928h-61.71v99.866H517.38V62.045h84.922v96.406h61.71V62.045h83.171v238.749h-83.171V200.928z   "
   id="path9" />
</g>
<g
   id="g11">
	<path
   fill="#FE6633"
   d="M781.38,62.145h185.008v51.021H859.214v39.532h75.624v45.251h-75.624v103.534H781.38V62.145z"
   id="path13" />
</g>
<g
   id="g15">
	<path
   style="fill:#fe6633;fill-rule:evenodd;stroke:#fe6633;stroke-opacity:1"
   d="m 1131.5938,186.90625 c -1.21,0.14258 -1.7682,1.03125 -2.0313,2.78125 -0.011,1.4 1.6695,1.817 2.6875,2.625 0.901,0.443 1.669,1.02425 2.625,1.40625 1.918,0.733 3.469,1.89025 5.25,2.78125 1.887,0.925 3.564,2.08275 5.375,3.09375 2.505,1.498 4.692,3.24975 6.75,5.09375 1.944,1.928 3.7765,3.90875 5.1875,6.09375 -0.179,1.499 -0.4655,1.63375 -2.0625,0.96875 -0.876,-0.361 -1.683,-0.808 -2.5,-1.25 -8.14,-4.434 -16.132,-9.06725 -24.875,-12.78125 -3.552,-1.505 -7.0903,-3.0205 -10.9062,-4.0625 -3.581,-0.981 -5.9696,0.05 -6.3126,2.625 0.268,0.953 1.3166,1.39775 2.1876,1.96875 1.9569,1.064 3.7855,2.255 5.6874,3.375 1.569,0.558 2.9443,1.3475 4.2813,2.1875 2.37,1.204 4.7138,2.464 7.2187,3.5 0.801,0.327 1.5161,0.78325 2.375,1.03125 0.989,0.284 13.4568,8.392 13.8438,8.625 0.49,1.354 -12.7973,-3.73425 -14.2812,-5.28125 -4.024,-0.941 -9.2013,-4.00225 -12.9063,-5.53125 -2.688,-1.114 -5.2743,-2.44475 -8.1563,-3.21875 -3.5529,-0.957 -4.786,-0.317 -4.875,2.375 0.087,0.534 0.4461,0.98125 0.875,1.40625 0.341,0.328 0.6863,0.672 1.0313,1 1.025,0.98 2.253,1.7565 3.625,2.4375 1.129,0.481 2.3823,0.7395 3.5313,1.1875 1.6739,0.675 3.23,1.505 4.75,2.375 0.2369,0.159 0.4657,0.2935 0.7187,0.4375 1.348,0.739 2.846,1.33825 4.125,2.15625 0.941,0.616 2.008,1.071 3,1.625 0.516,0.253 0.9523,0.564 1.4063,0.875 0.1609,0.101 0.323,0.19725 0.5,0.28125 2.4409,1.275 4.7865,2.679 7.1874,4 1.45,0.82 2.8703,1.647 4.2813,2.5 1.567,0.888 3.1075,1.7995 3.6875,3.3125 0.734,2.472 0.1872,2.92975 -2.9688,2.59375 -1.0709,-0.112 -2.0442,-0.437 -3.0312,-0.75 -2.403,-0.76 -4.5135,-1.97475 -6.9375,-2.71875 -4.539,-1.394 -9.2298,-2.334 -13.8437,-3.5 -2.676,-0.671 -5.3151,-1.36775 -8.125,-1.46875 -2.365,-0.081 -3.2958,0.3515 -3.9688,1.9375 0.229,1.279 1.55,1.85525 2.75,2.53125 3.444,1.327 6.9895,2.52375 10.4375,3.84375 1.579,0.511 8.9848,3.49025 10.4687,4.15625 2.712,1.256 5.4466,2.4625 8.1876,3.6875 0.6249,0.287 1.1812,0.65175 1.7812,0.96875 0.782,0.315 3.2478,3.444 3.4688,4 2.3759,2.638 1.7977,1.63325 3.4687,3.90625 5.746,5.135 11.8685,9.9685 18.1875,14.6875 4.316,2.866 8.946,5.3685 14.125,7.1875 2.062,0.782 4.1698,1.5085 6.2188,2.3125 4.9629,1.56 9.7172,3.519 14.6562,5.125 0.204,0.081 0.409,0.15675 0.625,0.21875 0.841,0.257 1.6395,0.547 2.4375,0.875 2.705,1.002 5.4365,1.99225 8.1875,2.90625 16.7287,6.01195 42.1262,22.20091 58.596,23.18332 0.029,-7.07661 0.044,-20.02798 0.031,-27.43332 -14.8112,-6.30185 -46.6387,-10.69226 -58.6584,-20.4375 -4.049,-3.25 -6.1608,-6.979 -6.4688,-11.375 -0.269,-3.862 -0.9478,-7.72975 -1.4688,-11.59375 -0.6319,-4.744 -3.6047,-9.06725 -5.0937,-13.65625 -0.761,-2.343 -2.3105,-4.35575 -4.5625,-5.96875 -2.793,-1.996 -4.4043,-4.32575 -5.0312,-7.09375 -0.172,-0.743 0.069,-1.68175 -1.5,-1.84375 -1.405,-0.148 -2.0816,0.50125 -2.5626,1.28125 -1.3329,2.166 -1.9282,4.4565 -1.4062,6.9375 0.172,0.808 4.488,10.66675 3.375,11.09375 -1.15,0.444 -6.4395,-9.12475 -7.1875,-9.71875 -3.083,-2.451 -6.0753,-4.95425 -9.1563,-7.40625 -2.5459,-2.028 -4.9245,-4.28175 -7.8124,-5.96875 -5.368,-3.132 -10.7543,-6.2615 -16.5313,-8.9375 -3.661,-1.692 -7.075,-3.72525 -11,-5.03125 -1.2787,-0.4245 -2.2428,-0.6168 -2.9687,-0.53125 z"
   id="path17"
   inkscape:connector-curvature="0"
   sodipodi:nodetypes="ccccccccccccccccccccccccccccccccccccccccccccccccccccccccccccccccccccccccccc" />
	
</g>
<g
   id="g21"
   style="stroke:#ffffff;stroke-opacity:1;stroke-width:0;stroke-miterlimit:4;stroke-dasharray:none">
	<path
   fill-rule="evenodd"
   clip-rule="evenodd"
   fill="#FE6633"
   d="M1086.714,123.827"
   id="path23"
   style="stroke:#ffffff;stroke-opacity:1;stroke-width:0;stroke-miterlimit:4;stroke-dasharray:none" />
	<path
   style="fill:#fe6633;fill-rule:evenodd;stroke:#fe6633;stroke-width:0;stroke-miterlimit:4;stroke-opacity:1;stroke-dasharray:none"
   d="m 1000.3125,61.875 c 0.048,3.237451 0.3437,18.028786 0.3437,24.153298 12.2124,9.638792 26.2913,17.204112 43.1876,32.002952 5.2529,3.622 9.9725,9.023 12.8124,14 0.823,1.001 1.0368,2.21175 1.8438,3.21875 0.233,2.2 19.5225,30.95159 31.8438,40.34375 8.3935,-1.818 -11.7056,-16.49251 -8.7188,-20.8125 -0.5982,1.41436 23.839,29.23575 28.875,23.71875 3.0213,-1.25636 -20.6707,-21.95264 -17.6562,-22.75 1.8691,0.53646 12.817,10.37 14.125,11.375 0,0 8.8787,5.32231 8.75,5.34375 2.2862,1.24871 1.3905,1.11197 4.3124,2.8125 2.174,1.251 2.2678,1.173 4.5938,2.25 1.209,0.63 2.526,1.00175 4,0.96875 0.735,-0.136 1.347,-0.4295 1.75,-0.9375 0.641,-1.249 0.1192,-2.34575 -0.8438,-3.34375 -1.8359,-1.892 -3.7035,-3.73975 -5.8124,-5.46875 -2.825,-2.316 -6.1308,-4.22925 -8.9688,-6.53125 -1.021,-0.834 -9.6942,-9.05275 -9.2812,-10.21875 1.1759,-2.18 10.3135,7.07525 11.4374,7.40625 1.973,0.925 3.7488,2.068 5.5938,3.125 2.187,1.421 4.468,2.74425 6.375,4.40625 1.736,1.009 3.2725,2.20025 5.0625,3.15625 3.308,1.503 4.0755,1.487 5.6875,-0.25 0.21,-0.853 -0.2883,-1.58875 -0.6562,-2.34375 -1.476,-3.014 -3.8853,-5.587 -6.5313,-8 -5.19,-4.739 -10.7015,-9.276 -16.4375,-13.625 -1.774,-1.346 -3.2953,-2.87575 -4.9062,-4.34375 -0.555,-0.554 -1.1463,-1.104 -1.5313,-1.75 0,0 -3.5815,-6.79975 -2.4375,-13.09375 1.185,-2.172 2.257,-4.41125 5,-5.78125 2.337,-1.011 4.7978,-1.12975 7.3438,-0.59375 2.8479,0.686 5.9165,0.544 8.6874,1.5 4.473,1.062 9.0046,1.79 13.6876,0.875 0.7299,-0.165 1.412,-0.39375 2.125,-0.59375 0.8649,-0.302 1.7827,-0.59575 2.4687,-1.09375 1.078,-0.786 2.9252,-1.06075 2.9063,-2.59375 0.1799,-1.332 -0.5066,-1.8305 -2.3126,-1.9375 -4.3029,-0.259 -8.56,-0.679 -12.625,-2 -16.1769,-5.248 -33.192,-7.941 -50.5,-9.5 -7.8379,-0.705 -14.7172,-2.7455 -20.9062,-6.4375 -17.468,-10.35863 -42.5115,-24.896518 -62.6875,-36.65625 z"
   id="path25"
   inkscape:connector-curvature="0"
   sodipodi:nodetypes="cccccccccccccccccccccccccccccccccccccccccc" />
	<path
   fill-rule="evenodd"
   clip-rule="evenodd"
   fill="#FE6633"
   d="M1056.478,128.904"
   id="path27"
   style="stroke:#ffffff;stroke-opacity:1;stroke-width:0;stroke-miterlimit:4;stroke-dasharray:none" />
	<path
   fill-rule="evenodd"
   clip-rule="evenodd"
   fill="#FE6633"
   d="M1058.514,135.257"
   id="path29"
   style="stroke:#ffffff;stroke-opacity:1;stroke-width:0;stroke-miterlimit:4;stroke-dasharray:none" />
	
	<path
   fill-rule="evenodd"
   clip-rule="evenodd"
   fill="#FE6633"
   d="M1105.994,124.984"
   id="path33"
   style="stroke:#ffffff;stroke-opacity:1;stroke-width:0;stroke-miterlimit:4;stroke-dasharray:none" />
</g>

<path
   fill-rule="evenodd"
   clip-rule="evenodd"
   fill="#FE6633"
   d="M341.292,242.978"
   id="path37" />
<path
   fill="#FE6633"
   d="M450.247,300.673L482.66,62.264h-59.366l-8.345,15.456c9.235,14.294,7.63,33.281,2.691,47.973  c5.124,0.251,9.761-4.326,14.895-4.782c-2.691,5.704-7.441,9.16-13.549,11.74c1.091,4.366,4.58,9.068,8.213,12.147  c4.182,3.541,6.445,5.508,8.979,10.515c2.667,5.267,2.963,7.415-3.167,10.095c-3.173,1.386-8.375,1.231-8.323,5.31  c3.131,1.073,4.935,3.449,6.582,6.136c3.147,5.137-10.989,3.754-13.251,6.045c-3.232,3.276,7.918,2.704,7.095,6.443  c-0.691,3.134-10.018,3.432-12.762,5.381c5.166,7.717,9.642,16.393-2.596,21.89c-3.785,1.702-9.233,1.108-13.431,1.108  c-6.497-0.002-10.267-1.999-16.196-3.693c-12.218-3.485-29.963-4.773-41.481,0.95c-1.018,0.51-5.675,2.86-6.099,3.877l29.217,81.819  H450.247z"
   id="path39" />
<g
   id="g41">
	<path
   fill="#FE6633"
   d="M1508.85,136.928c0,10.802-2.162,20.85-6.479,30.154c-4.322,9.307-10.42,17.405-18.292,24.299   c-7.877,6.891-17.528,12.292-28.962,16.196c-11.431,3.909-24.138,5.857-38.106,5.857h-40.776v87.37h-68.945V62.145h112.008   c13.969,0,26.545,1.956,37.727,5.859c11.176,3.908,20.578,9.193,28.2,15.852c7.62,6.666,13.461,14.592,17.528,23.778   C1506.814,116.826,1508.85,126.59,1508.85,136.928z M1450.489,139.444c0-10.857-3.429-14.798-10.289-21.246   c-6.859-6.447-15.003-6.527-27.959-6.527h-36.006v57.245h33.719c13.206,0,21.797-0.192,29.293-6.867   C1446.738,155.378,1450.489,150.981,1450.489,139.444z"
   id="path43" />
</g>



<path
   style="fill:#fe6633;fill-rule:evenodd"
   d="M 1196.5625 63 L 1197.125 191.59375 L 1197.125 192.65625 L 1197.125 209.625 C 1205.4374 217.20587 1210.007 232.94957 1210.6562 246.21875 C 1213.686 255.97345 1235.0867 261.76579 1269.5938 271.625 C 1269.6168 271.6316 1269.6331 271.64965 1269.6562 271.65625 L 1269.6562 271.625 L 1269.7812 63 L 1196.5625 63 z "
   id="polygon51" />


<path
   fill-rule="evenodd"
   clip-rule="evenodd"
   fill="#FEB198"
   d="M1448.292,372.577c-0.049-0.3-0.074-0.601-0.078-0.904  c2.332,0,4.666,0,6.999,0C1453.12,373.617,1450.605,372.328,1448.292,372.577z"
   id="path57" />

<g
   id="g61">
	<path
   fill="#FE6633"
   d="M697.968,270.297c-13.571-26.989-34.659-56.763-68.871-54.164c-30.636,2.327-48.564,29.313-61.061,54.164   c-12.346-13.964-24.69-27.929-37.035-41.894c19.064-39.873,49.54-82.822,98.141-85.186c52.084-2.533,85.795,43.213,105.861,85.186   C722.659,242.368,710.314,256.333,697.968,270.297z"
   id="path63" />
</g>
</svg>