<?xml version="1.0" encoding="UTF-8" standalone="no"?>
<!-- Created with Inkscape (http://www.inkscape.org/) -->

<svg
   xmlns:dc="http://purl.org/dc/elements/1.1/"
   xmlns:cc="http://creativecommons.org/ns#"
   xmlns:rdf="http://www.w3.org/1999/02/22-rdf-syntax-ns#"
   xmlns:svg="http://www.w3.org/2000/svg"
   xmlns="http://www.w3.org/2000/svg"
   xmlns:xlink="http://www.w3.org/1999/xlink"
   xmlns:sodipodi="http://sodipodi.sourceforge.net/DTD/sodipodi-0.dtd"
   xmlns:inkscape="http://www.inkscape.org/namespaces/inkscape"
   version="1.1"
   width="1730.553"
   height="373.771"
   viewBox="0 0 1730.553 373.771"
   id="Logo_xA0_Image_1_"
   xml:space="preserve"
   inkscape:version="0.48.2 r9819"
   sodipodi:docname="whfnplogo3.svg"><sodipodi:namedview
   pagecolor="#ffffff"
   bordercolor="#666666"
   borderopacity="1"
   objecttolerance="10"
   gridtolerance="10"
   guidetolerance="10"
   inkscape:pageopacity="0"
   inkscape:pageshadow="2"
   inkscape:window-width="1280"
   inkscape:window-height="707"
   id="namedview3292"
   showgrid="false"
   inkscape:zoom="0.40680638"
   inkscape:cx="626.83382"
   inkscape:cy="186.8855"
   inkscape:window-x="0"
   inkscape:window-y="0"
   inkscape:window-maximized="0"
   inkscape:current-layer="Logo_xA0_Image_1_" /><metadata
   id="metadata75"><rdf:RDF><cc:Work
       rdf:about=""><dc:format>image/svg+xml</dc:format><dc:type
         rdf:resource="http://purl.org/dc/dcmitype/StillImage" /><dc:title></dc:title></cc:Work></rdf:RDF></metadata><defs
   id="defs73"><linearGradient
   id="linearGradient3799"><stop
     id="stop3801"
     style="stop-color:#000000;stop-opacity:1"
     offset="0" /><stop
     id="stop3803"
     style="stop-color:#000000;stop-opacity:0"
     offset="1" /></linearGradient><radialGradient
   cx="1408.0699"
   cy="181.4745"
   r="101.28"
   fx="1408.0699"
   fy="181.4745"
   id="radialGradient3831"
   xlink:href="#linearGradient3799"
   gradientUnits="userSpaceOnUse"
   gradientTransform="matrix(1,0,0,1.1831507,0,-33.237177)" /><radialGradient
   cx="1074.8809"
   cy="121.22029"
   r="75.000923"
   fx="1074.8809"
   fy="121.22029"
   id="radialGradient3839"
   xlink:href="#linearGradient3799"
   gradientUnits="userSpaceOnUse"
   gradientTransform="matrix(1,0,0,0.78276004,0,26.333891)" /><radialGradient
   cx="1173.4662"
   cy="254.95119"
   r="86.252777"
   fx="1173.4662"
   fy="254.95119"
   id="radialGradient3841"
   xlink:href="#linearGradient3799"
   gradientUnits="userSpaceOnUse"
   gradientTransform="matrix(1,0,0,0.52924467,0,120.01963)" /><radialGradient
   cx="873.88397"
   cy="181.814"
   r="93.003998"
   fx="873.88397"
   fy="181.814"
   id="radialGradient3845"
   xlink:href="#linearGradient3799"
   gradientUnits="userSpaceOnUse"
   gradientTransform="matrix(1,0,0,1.2920842,0,-53.104999)" /><radialGradient
   cx="632.28149"
   cy="181.41949"
   r="115.4015"
   fx="632.28149"
   fy="181.41949"
   id="radialGradient3847"
   xlink:href="#linearGradient3799"
   gradientUnits="userSpaceOnUse"
   gradientTransform="matrix(1,0,0,1.0387603,0,-7.0318793)" />
	
	
	
	
	
</defs>
<path
   d="m 1194.5625,62.09375 c -0.9616,-4.34e-4 -1.6474,0.09193 -2.125,0.3125 l -1.5625,0 0.9375,0.5625 c -0.179,0.298359 -0.2746,0.669709 -0.2813,1.1875 -0.2269,19.601 0.1935,39.2105 -0.3124,58.8125 -0.5512,21.33475 -0.1368,42.66514 -0.125,64 10e-5,0.30225 0,0.604 0,0.90625 l -0.4376,60.3125 1.25,0.84375 0.031,0.0312 c 0.1001,0.18589 0.2494,0.36663 0.4375,0.53125 5e-4,0.0101 -5e-4,0.0211 0,0.0312 -0.029,0.809 0.3663,1.56775 0.5312,2.34375 0.229,1.185 1.3116,2.0565 2.0626,3.0625 0.6619,0.735 1.2447,1.55075 2.2187,2.09375 3.628,2.011 6.6458,4.4565 9.9687,6.6875 0.956,0.641 1.8888,1.29125 3.2188,1.53125 2.12,1.017 3.9938,2.22775 5.8438,3.46875 5.2859,3.026 10.5805,6.06675 15.5624,9.34375 2.784,1.224 4.8388,3.0205 7.2188,4.5625 2.245,1.232 4.2433,2.652 6.1562,4.125 2.655,1.482 5.1191,3.09 7.375,4.875 1.311,0.767 2.6728,1.50375 3.7188,2.46875 1.318,0.734 2.7025,1.42325 3.6875,2.40625 1.198,0.795 2.3968,1.58 3.5937,2.375 1.235,0.727 2.4526,1.4595 3.6876,2.1875 0.056,-0.0323 0.1094,-0.06 0.1562,-0.0937 l 0.1875,0.125 0,-0.28125 c 0.5064,-0.51007 0.2187,-1.15558 0.2187,-1.71875 0.03,-5.961 0,-11.911 0,-17.875 0,-14.474 -9e-4,-28.93425 0,-43.40625 -0.4029,-0.422 -0.2187,-0.924 -0.2187,-1.375 0.067,-5.99728 0.022,-11.97449 -0.062,-17.96875 l -0.031,-24.90625 c 0.1032,0.0395 0.1865,0.092 0.3124,0.125 l 0,-49.65625 c 0.012,-0.284 0.1071,-0.56775 0.5,-0.71875 0.305,-3.816 -0.4687,-7.59925 -0.4687,-11.40625 -0.03,-22.564 -0.031,-45.1215 0.031,-67.6875 0,-0.7326 -0.1428,-1.242377 -0.5,-1.59375 l 0,-0.3125 -0.4376,0 c -0.4676,-0.209997 -1.1586,-0.31487 -2.125,-0.3125 -23.4109,0.058 -46.8047,0.051 -70.2187,0 z"
   id="path3822"
   style="fill:#c52253;fill-opacity:1;fill-rule:nonzero;stroke:none" /><path
   d="m 97.712331,62.812257 63.297929,237.213583 90.33781,0 50.39252,-147.49031 12.90541,38.71621 55.30886,-51.00707 -25.8108,-79.890585 -84.80693,1.229086 L 215.09004,198.01171 177.60292,62.812257 z"
   id="path3052"
   style="fill:#c52253;fill-opacity:1;stroke:none" />





<g
   id="g15"
   style="fill:#c52253;fill-opacity:1;stroke:none">
	<path
   d="m 674.012,199.928 h -80.71 l 9,100.866 H 517.38 V 62.045 h 84.922 l -9,95.406 h 80.71 l -10,-95.406 h 83.171 v 238.749 h -83.171 l 10,-100.866 z"
   id="path17"
   style="fill:#c52253;fill-opacity:1;stroke:none" />
</g>
<g
   id="g19"
   style="fill:#c52253;fill-opacity:1;stroke:none">
	<path
   d="m 781.38,62.145 h 185.008 v 51.021 H 859.214 v 39.532 h 75.624 v 45.251 H 859.214 V 301.483 H 781.38 V 62.145 z"
   id="path21"
   style="fill:#c52253;fill-opacity:1;stroke:none" />
</g>

<g
   id="g35"
   style="fill:#c52253;fill-opacity:1;stroke:none">
	<path
   d="m 1188.953,254.373 c 0.79,3.446 2.31,6.669 5.361,9.347 1.726,1.517 4.056,2.433 6.026,3.694 1.446,0.554 2.861,1.167 4.022,2.029 3.441,2.559 7.564,4.403 11.526,6.424 3.438,2.213 7.44,3.803 11.177,5.694 5.405,2.731 10.731,5.531 15.904,8.517 5.044,2.914 10.06,5.865 15.131,8.756 0.436,0.25 1.947,0.442 0.518,1.266 -0.399,-0.002 -0.797,-0.004 -1.195,-0.003 -1.392,-0.244 -2.866,-0.132 -4.238,-0.464 -1.965,-0.301 -3.912,-0.65 -5.852,-1.021 -1.378,-0.326 -2.789,-0.554 -4.194,-0.808 -1.937,-0.43 -3.965,-0.595 -5.904,-1.019 -2.279,-0.508 -4.601,-0.896 -6.91,-1.32 -2.882,-0.599 -5.855,-0.905 -8.743,-1.489 -2.762,-0.791 -5.688,-1.148 -8.569,-1.623 -3.167,-0.679 -6.377,-1.244 -9.578,-1.836 -2.861,-0.462 -5.699,-0.999 -8.529,-1.556 -0.84,-0.196 -1.692,-0.369 -2.563,-0.488 -0.223,-0.026 -0.44,-0.07 -0.655,-0.117 -5.133,-0.795 -10.133,-1.972 -15.282,-2.717 -2.151,-0.466 -4.338,-0.84 -6.498,-1.281 -5.402,-0.967 -10.37,-2.678 -15.089,-4.816 -6.993,-3.646 -13.834,-7.447 -20.328,-11.597 -2.013,-1.977 -1.278,-1.078 -4.046,-3.302 -0.307,-0.514 -3.233,-3.214 -4.056,-3.398 -0.643,-0.218 -1.251,-0.481 -1.914,-0.665 -2.901,-0.77 -5.808,-1.524 -8.687,-2.331"
   id="path37"
   style="fill:#c52253;fill-opacity:1;fill-rule:evenodd;stroke:none" />
	<path
   d="m 1115.787,258.248 c -1.571,-0.42 -9.352,-2.173 -10.992,-2.425 -3.615,-0.751 -7.282,-1.364 -10.895,-2.123 -1.293,-0.476 -2.711,-0.838 -3.142,-2.064 0.41,-1.673 1.25,-2.26 3.598,-2.559 2.79,-0.351 5.526,-0.062 8.275,0.173 4.741,0.412 9.526,0.58 14.229,1.23 2.512,0.347 4.791,1.212 7.285,1.577 1.025,0.151 2.025,0.319 3.1,0.259 3.17,-0.174 3.633,-0.711 2.512,-3.033 -0.814,-1.4 -2.462,-2.061 -4.151,-2.688 -1.529,-0.615 -3.075,-1.214 -4.638,-1.79 -2.582,-0.92 -5.107,-1.924 -7.721,-2.792 -0.188,-0.055 -0.365,-0.121 -0.54,-0.196 -0.498,-0.233 -0.996,-0.471 -1.545,-0.638 -1.068,-0.388 -2.205,-0.662 -3.231,-1.12 -1.395,-0.604 -2.942,-0.953 -4.391,-1.467 -0.272,-0.102 -0.533,-0.222 -0.792,-0.342 -1.64,-0.615 -3.312,-1.16 -5.073,-1.559 -1.206,-0.258 -2.479,-0.312 -3.67,-0.604 -1.464,-0.452 -2.811,-1.043 -3.979,-1.846 -0.394,-0.269 -0.791,-0.533 -1.181,-0.803 -0.49,-0.351 -0.901,-0.744 -1.073,-1.257 -0.343,-2.672 0.781,-3.51 4.441,-3.134 2.969,0.304 5.718,1.199 8.549,1.869 3.901,0.917 9.51,3.121 13.633,3.406 1.713,1.289 15.635,4.191 14.936,2.934 -0.419,-0.168 -14.034,-6.196 -15.056,-6.318 -0.888,-0.107 -1.658,-0.443 -2.501,-0.638 -2.639,-0.622 -5.146,-1.471 -7.679,-2.279 -1.454,-0.614 -2.93,-1.19 -4.567,-1.491 -2.057,-0.801 -4.069,-1.666 -6.172,-2.403 -0.951,-0.424 -2.053,-0.717 -2.469,-1.614 -0.074,-2.598 2.103,-4.003 5.795,-3.607 3.934,0.418 7.698,1.345 11.445,2.263 9.225,2.267 17.833,5.569 26.578,8.644 0.877,0.306 1.746,0.635 2.668,0.851 1.683,0.4 1.943,0.208 1.881,-1.3 -1.742,-1.931 -3.874,-3.591 -6.102,-5.183 -2.326,-1.49 -4.75,-2.882 -7.463,-3.959 -1.949,-0.708 -3.789,-1.563 -5.799,-2.174 -1.901,-0.594 -3.621,-1.481 -5.632,-1.898 -1.005,-0.224 -1.86,-0.681 -2.821,-0.975 -1.134,-0.634 -2.859,-0.785 -3.072,-2.169 -0.032,-2.831 1.021,-3.599 4.567,-3.027 4.083,0.66 7.782,2.134 11.667,3.219 6.131,1.717 11.967,3.941 17.767,6.174 3.121,1.202 5.807,3.046 8.645,4.641 3.434,1.928 6.804,3.919 10.239,5.845 0.834,0.466 7.59,9.074 8.654,8.451 1.03,-0.6 -4.826,-9.648 -5.125,-10.42 -0.913,-2.365 -0.665,-4.718 0.304,-7.069 0.351,-0.847 0.89,-1.59 2.3,-1.67 1.575,-0.091 1.509,0.866 1.798,1.572 1.062,2.632 3.011,4.658 6.087,6.182 2.481,1.232 4.338,2.984 5.464,5.176 2.205,4.291 5.831,8.081 7.214,12.663 1.133,3.731 2.43,7.435 3.312,11.204 1.008,4.289 3.681,7.652 8.197,10.212 1.115,0.631 2.039,1.452 3.052,2.188 -3.475,-1.405 -5.999,-2.098 -8.194,-4.626 -2.188,-2.521 -6.831,6.333 -7.495,3.384"
   id="path39"
   style="fill:#c52253;fill-opacity:1;fill-rule:evenodd;stroke:none" />
</g>
<g
   id="g41"
   style="fill:#c52253;fill-opacity:1;stroke:none">
	<path
   d="M 1086.714,123.827"
   id="path43"
   style="fill:#c52253;fill-opacity:1;fill-rule:evenodd;stroke:none" />
	<path
   d="m 1061.01,138.749 c -1.118,-1.037 -1.56,-2.376 -2.496,-3.492 -0.807,-1.007 -1.041,-2.214 -1.864,-3.215 -2.84,-4.977 -6.808,-9.317 -12.061,-12.939 -2.534,-2.275 -5.431,-4.276 -8.121,-6.432 -1.106,-0.909 -2.261,-1.777 -3.405,-2.658 -0.659,-0.539 -1.33,-1.068 -2.142,-1.479 -3.354,-2.717 -6.205,-5.803 -10.051,-8.158 -2.741,-2.039 -4.759,-4.602 -7.698,-6.507 -3.103,-2.426 -5.812,-5.134 -9.074,-7.438 -0.672,-0.478 -1.05,-1.075 -1.321,-1.731 -0.642,-0.612 -1.287,-1.222 -1.93,-1.835 -0.223,-0.403 -0.424,-0.812 -0.414,-1.263 0.115,-5.685 -0.316,-11.368 0.234,-17.045 0.167,-1.718 0.669,-1.937 2.626,-0.982 2.517,1.224 4.781,2.729 7.133,4.135 10.037,6 20.261,11.817 30.374,17.741 0.576,0.338 1.045,0.784 1.684,1.06 6.846,4.002 13.729,7.97 20.527,12.021 6.189,3.692 13.047,5.742 20.885,6.447 17.308,1.559 34.321,4.257 50.498,9.505 4.065,1.321 8.346,1.729 12.649,1.988 1.806,0.107 2.491,0.606 2.311,1.938 0.019,1.533 -1.839,1.812 -2.917,2.598 -0.686,0.498 -1.592,0.775 -2.457,1.077 -0.713,0.2 -1.414,0.428 -2.144,0.593 -4.683,0.915 -9.193,0.201 -13.666,-0.861 -2.771,-0.956 -5.861,-0.822 -8.709,-1.508 -2.546,-0.536 -5.001,-0.413 -7.338,0.598 -2.743,1.37 -3.801,3.615 -4.986,5.787 -0.553,0.856 -2.322,1.273 -2.332,2.211 -0.01,0.66 1.761,1.871 0.894,2.335"
   id="path45"
   style="fill:#c52253;fill-opacity:1;fill-rule:evenodd;stroke:none" />
	<path
   d="M 1056.478,128.904"
   id="path47"
   style="fill:#c52253;fill-opacity:1;fill-rule:evenodd;stroke:none" />
	<path
   d="M 1058.514,135.257"
   id="path49"
   style="fill:#c52253;fill-opacity:1;fill-rule:evenodd;stroke:none" />
	<path
   d="m 1107.137,126.693 c -1.144,6.294 2.428,13.102 2.428,13.102 0.385,0.646 0.989,1.171 1.544,1.725 1.611,1.468 3.103,3.021 4.877,4.367 5.736,4.349 11.264,8.859 16.454,13.598 2.646,2.413 5.059,4.994 6.535,8.008 0.368,0.755 0.856,1.488 0.646,2.341 -1.612,1.737 -2.363,1.771 -5.671,0.268 -1.79,-0.956 -3.325,-2.153 -5.061,-3.162 -1.907,-1.662 -4.202,-2.987 -6.389,-4.408 -1.845,-1.057 -3.612,-2.197 -5.585,-3.122 -1.124,-0.331 -10.277,-9.59 -11.453,-7.41 -0.413,1.166 8.271,9.383 9.292,10.217 2.838,2.302 6.139,4.212 8.964,6.528 2.109,1.729 3.979,3.596 5.815,5.488 0.963,0.998 1.475,2.075 0.834,3.324 -0.403,0.508 -1.012,0.796 -1.747,0.932 -1.474,0.033 -2.793,-0.329 -4.002,-0.959 -2.326,-1.077 -2.406,-0.984 -4.58,-2.235 -3.22,-1.874 -1.628,-1.441 -4.979,-3.181 3.503,1.952 -8.085,-4.992 -8.085,-4.992 -1.308,-1.005 -9.659,-7.753 -10.76,-8.904 -0.71,-0.739 15.308,19.863 14.284,20.273 -5.036,5.517 -19.334,-15.063 -22.423,-16.631 1.776,0.94 12.207,19.341 2.277,13.729 -22.154,-26.753 -31.606,-38.131 -31.839,-40.331"
   id="path51"
   style="fill:#c52253;fill-opacity:1;fill-rule:evenodd;stroke:none" />
	<path
   d="M 1105.994,124.984"
   id="path53"
   style="fill:#c52253;fill-opacity:1;fill-rule:evenodd;stroke:none" />
</g>
<polygon
   points="1000.38,300.146 1000.38,88.989 1081.022,169.853 1081.022,300.146 "
   id="polygon55"
   style="fill:#c52253;fill-opacity:1;stroke:none" />
<path
   d="M 341.292,242.978"
   id="path57"
   style="fill:#ff897a;fill-opacity:1;fill-rule:evenodd;stroke:none" />
<path
   d="M 450.247,300.673 482.66,62.264 h -59.366 l -8.345,15.456 c 9.235,14.294 7.63,33.281 2.691,47.973 5.124,0.251 9.761,-4.326 14.895,-4.782 -2.691,5.704 -7.441,9.16 -13.549,11.74 1.091,4.366 4.58,9.068 8.213,12.147 4.182,3.541 6.445,5.508 8.979,10.515 2.667,5.267 2.963,7.415 -3.167,10.095 -3.173,1.386 -8.375,1.231 -8.323,5.31 3.131,1.073 4.935,3.449 6.582,6.136 3.147,5.137 -10.989,3.754 -13.251,6.045 -3.232,3.276 7.918,2.704 7.095,6.443 -0.691,3.134 -10.018,3.432 -12.762,5.381 5.166,7.717 9.642,16.393 -2.596,21.89 -3.785,1.702 -9.233,1.108 -13.431,1.108 -6.497,-0.002 -10.267,-1.999 -16.196,-3.693 -12.218,-3.485 -29.963,-4.773 -41.481,0.95 -1.018,0.51 -5.675,2.86 -6.099,3.877 l 29.217,81.819 h 88.481 z"
   id="path59"
   style="fill:#c52253;fill-opacity:1;stroke:none" />
<g
   id="g61"
   style="fill:#c52253;fill-opacity:1;stroke:none">
	<path
   d="m 1508.85,136.928 c 0,10.802 -2.162,20.85 -6.479,30.154 -4.322,9.307 -10.42,17.405 -18.292,24.299 -7.877,6.891 -17.528,12.292 -28.962,16.196 -11.431,3.909 -24.138,5.857 -38.106,5.857 h -40.776 v 87.37 H 1307.29 V 62.145 h 112.008 c 13.969,0 26.545,1.956 37.727,5.859 11.176,3.908 20.578,9.193 28.2,15.852 7.62,6.666 13.461,14.592 17.528,23.778 4.061,9.192 6.097,18.956 6.097,29.294 z m -58.361,2.516 c 0,-10.857 -3.429,-14.798 -10.289,-21.246 -6.859,-6.447 -15.003,-6.527 -27.959,-6.527 h -36.006 v 57.245 h 33.719 c 13.206,0 21.797,-0.192 29.293,-6.867 7.491,-6.671 11.242,-11.068 11.242,-22.605 z"
   id="path63"
   style="fill:#c52253;fill-opacity:1;stroke:none" />
</g>



</svg>