<?xml version="1.0" encoding="UTF-8" standalone="no"?>
<!-- Created with Inkscape (http://www.inkscape.org/) -->

<svg
   xmlns:dc="http://purl.org/dc/elements/1.1/"
   xmlns:cc="http://creativecommons.org/ns#"
   xmlns:rdf="http://www.w3.org/1999/02/22-rdf-syntax-ns#"
   xmlns:svg="http://www.w3.org/2000/svg"
   xmlns="http://www.w3.org/2000/svg"
   xmlns:sodipodi="http://sodipodi.sourceforge.net/DTD/sodipodi-0.dtd"
   xmlns:inkscape="http://www.inkscape.org/namespaces/inkscape"
   width="50"
   height="58"
   id="svg4313"
   version="1.1"
   inkscape:version="0.48.2 r9819"
   inkscape:export-filename="/Users/lk/www/thatdeliverychap/src/img/email.png"
   inkscape:export-xdpi="144.56"
   inkscape:export-ydpi="144.56"
   sodipodi:docname="project-starts.svg">
  <defs
     id="defs3" />
  <sodipodi:namedview
     inkscape:document-units="mm"
     id="base"
     pagecolor="#ffffff"
     bordercolor="#666666"
     borderopacity="1.0"
     inkscape:pageopacity="0"
     inkscape:pageshadow="2"
     inkscape:zoom="3.959798"
     inkscape:cx="23.700032"
     inkscape:cy="22.094083"
     inkscape:current-layer="layer1"
     showgrid="true"
     units="px"
     inkscape:window-width="1215"
     inkscape:window-height="756"
     inkscape:window-x="25"
     inkscape:window-y="1"
     inkscape:window-maximized="0"
     fit-margin-top="0"
     fit-margin-left="0"
     fit-margin-right="0"
     fit-margin-bottom="0">
    <inkscape:grid
       type="xygrid"
       id="grid4629"
       empspacing="5"
       visible="true"
       enabled="true"
       snapvisiblegridlinesonly="false" />
  </sodipodi:namedview>
  <metadata
     id="metadata4">
    <rdf:RDF>
      <cc:Work
         rdf:about="">
        <dc:format>image/svg+xml</dc:format>
        <dc:type
           rdf:resource="http://purl.org/dc/dcmitype/StillImage" />
        <dc:title></dc:title>
      </cc:Work>
    </rdf:RDF>
  </metadata>
  <g
     inkscape:label="Layer 1"
     inkscape:groupmode="layer"
     id="layer1"
     transform="translate(-29.999999,-963.0764)">
    <g
       id="g35347"
       transform="matrix(0.54440551,0,0,0.54440551,39.779724,459.41749)"
       style="fill:#ff8962;fill-opacity:1">
      <path
         sodipodi:open="true"
         sodipodi:end="4.7088751"
         sodipodi:start="1.5748508"
         transform="matrix(1,0,0,1.5501538,31.499999,945.17363)"
         d="M 18.445265,27.999918 C 10.989482,27.977526 4.9698815,23.482257 5.000111,17.959455 5.0301787,12.466186 11.036634,8.0193645 18.452563,8.0000617"
         sodipodi:ry="10"
         sodipodi:rx="13.5"
         sodipodi:cy="18"
         sodipodi:cx="18.5"
         id="path35349"
         style="fill:#ff8962;fill-opacity:1;stroke:none"
         sodipodi:type="arc" />
      <rect
         y="986.07642"
         x="45"
         height="9.9999838"
         width="5"
         id="rect35351"
         style="fill:#ff8962;fill-opacity:1;fill-rule:nonzero;stroke:none" />
      <path
         inkscape:connector-curvature="0"
         id="path35353"
         d="m 41.421051,986.0764 c 4.508219,17.8576 -21.267499,5.07053 -16.421052,22 15.805852,8.1167 29.610462,9.8454 48,0 4.846447,-16.92947 -20.929271,-4.1424 -16.421052,-22 l -6.31579,0 -2.526316,0 z"
         style="fill:#ff8962;fill-opacity:1;fill-rule:nonzero;stroke:none"
         sodipodi:nodetypes="ccccccc" />
      <path
         id="path35355"
         transform="translate(29.999999,963.0764)"
         d="M 18.6875,-7.03125 C 18.451672,-7.0303348 18.228546,-7.0060142 18,-7 -7.9370022,-6.317471 12.636653,26.878884 -2,22 -0.56172548,23.90524 1.307964,26.184858 4.15625,27.625 3.6424907,28.094284 2.3505558,28.060688 1,28 c 4.6236082,3.840123 8.0458738,2.675357 11.53125,0.9375 0.0084,-0.0042 0.02283,0.0042 0.03125,0 1.893719,-0.213796 4.035352,-0.728073 6.4375,-1.59375 2.414424,0.8701 4.567766,1.381798 6.46875,1.59375 C 28.954126,30.675357 32.376392,31.840123 37,28 35.649444,28.060688 34.357509,28.094284 33.84375,27.625 36.692036,26.184858 38.561726,23.90524 40,22 25.363347,26.878884 45.937002,-6.317471 20,-7 19.546875,-7.015625 19.116058,-7.0329132 18.6875,-7.03125 z"
         style="fill:#ff8962;fill-opacity:1;fill-rule:nonzero;stroke:none"
         inkscape:connector-curvature="0" />
      <rect
         transform="scale(-1,1)"
         style="fill:#ff8962;fill-opacity:1;fill-rule:nonzero;stroke:none"
         id="rect35357"
         width="5"
         height="9.9999838"
         x="-53"
         y="986.07642" />
    </g>
    <g
       style="fill:#ff8962;fill-opacity:1"
       transform="matrix(0.54440551,0,0,0.54440551,17.147029,459.41749)"
       id="g35335">
      <path
         sodipodi:type="arc"
         style="fill:#ff8962;fill-opacity:1;stroke:none"
         id="path35337"
         sodipodi:cx="18.5"
         sodipodi:cy="18"
         sodipodi:rx="13.5"
         sodipodi:ry="10"
         d="M 18.445265,27.999918 C 10.989482,27.977526 4.9698815,23.482257 5.000111,17.959455 5.0301787,12.466186 11.036634,8.0193645 18.452563,8.0000617"
         transform="matrix(1,0,0,1.5501538,31.499999,945.17363)"
         sodipodi:start="1.5748508"
         sodipodi:end="4.7088751"
         sodipodi:open="true" />
      <rect
         style="fill:#ff8962;fill-opacity:1;fill-rule:nonzero;stroke:none"
         id="rect35339"
         width="5"
         height="9.9999838"
         x="45"
         y="986.07642" />
      <path
         sodipodi:nodetypes="ccccccc"
         style="fill:#ff8962;fill-opacity:1;fill-rule:nonzero;stroke:none"
         d="m 41.421051,986.0764 c 4.508219,17.8576 -21.267499,5.07053 -16.421052,22 15.805852,8.1167 29.610462,9.8454 48,0 4.846447,-16.92947 -20.929271,-4.1424 -16.421052,-22 l -6.31579,0 -2.526316,0 z"
         id="path35341"
         inkscape:connector-curvature="0" />
      <path
         inkscape:connector-curvature="0"
         style="fill:#ff8962;fill-opacity:1;fill-rule:nonzero;stroke:none"
         d="M 18.6875,-7.03125 C 18.451672,-7.0303348 18.228546,-7.0060142 18,-7 -7.9370022,-6.317471 12.636653,26.878884 -2,22 -0.56172548,23.90524 1.307964,26.184858 4.15625,27.625 3.6424907,28.094284 2.3505558,28.060688 1,28 c 4.6236082,3.840123 8.0458738,2.675357 11.53125,0.9375 0.0084,-0.0042 0.02283,0.0042 0.03125,0 1.893719,-0.213796 4.035352,-0.728073 6.4375,-1.59375 2.414424,0.8701 4.567766,1.381798 6.46875,1.59375 C 28.954126,30.675357 32.376392,31.840123 37,28 35.649444,28.060688 34.357509,28.094284 33.84375,27.625 36.692036,26.184858 38.561726,23.90524 40,22 25.363347,26.878884 45.937002,-6.317471 20,-7 19.546875,-7.015625 19.116058,-7.0329132 18.6875,-7.03125 z"
         transform="translate(29.999999,963.0764)"
         id="path35343" />
      <rect
         y="986.07642"
         x="-53"
         height="9.9999838"
         width="5"
         id="rect35345"
         style="fill:#ff8962;fill-opacity:1;fill-rule:nonzero;stroke:none"
         transform="scale(-1,1)" />
    </g>
    <g
       id="g35304"
       transform="matrix(0.54440551,0,0,0.54440551,27.434618,465.59004)"
       style="fill:#fe6633;fill-opacity:1">
      <path
         sodipodi:open="true"
         sodipodi:end="4.7088751"
         sodipodi:start="1.5748508"
         transform="matrix(1,0,0,1.5501538,31.499999,945.17363)"
         d="M 18.445265,27.999918 C 10.989482,27.977526 4.9698815,23.482257 5.000111,17.959455 5.0301787,12.466186 11.036634,8.0193645 18.452563,8.0000617"
         sodipodi:ry="10"
         sodipodi:rx="13.5"
         sodipodi:cy="18"
         sodipodi:cx="18.5"
         id="path34754"
         style="fill:#fe6633;fill-opacity:1;stroke:none"
         sodipodi:type="arc" />
      <rect
         y="986.07642"
         x="45"
         height="9.9999838"
         width="5"
         id="rect35264"
         style="fill:#fe6633;fill-opacity:1;fill-rule:nonzero;stroke:none" />
      <path
         inkscape:connector-curvature="0"
         id="path35266"
         d="m 41.421051,986.0764 c 4.508219,17.8576 -21.267499,5.07053 -16.421052,22 15.805852,8.1167 29.610462,9.8454 48,0 4.846447,-16.92947 -20.929271,-4.1424 -16.421052,-22 l -6.31579,0 -2.526316,0 z"
         style="fill:#fe6633;fill-opacity:1;fill-rule:nonzero;stroke:none"
         sodipodi:nodetypes="ccccccc" />
      <path
         id="path35268"
         transform="translate(29.999999,963.0764)"
         d="M 18.6875,-7.03125 C 18.451672,-7.0303348 18.228546,-7.0060142 18,-7 -7.9370022,-6.317471 12.636653,26.878884 -2,22 -0.56172548,23.90524 1.307964,26.184858 4.15625,27.625 3.6424907,28.094284 2.3505558,28.060688 1,28 c 4.6236082,3.840123 8.0458738,2.675357 11.53125,0.9375 0.0084,-0.0042 0.02283,0.0042 0.03125,0 1.893719,-0.213796 4.035352,-0.728073 6.4375,-1.59375 2.414424,0.8701 4.567766,1.381798 6.46875,1.59375 C 28.954126,30.675357 32.376392,31.840123 37,28 35.649444,28.060688 34.357509,28.094284 33.84375,27.625 36.692036,26.184858 38.561726,23.90524 40,22 25.363347,26.878884 45.937002,-6.317471 20,-7 19.546875,-7.015625 19.116058,-7.0329132 18.6875,-7.03125 z"
         style="fill:#fe6633;fill-opacity:1;fill-rule:nonzero;stroke:none"
         inkscape:connector-curvature="0" />
      <rect
         transform="scale(-1,1)"
         style="fill:#fe6633;fill-opacity:1;fill-rule:nonzero;stroke:none"
         id="rect35283"
         width="5"
         height="9.9999838"
         x="-53"
         y="986.07642" />
    </g>
  </g>
</svg>
