<?xml version="1.0" encoding="UTF-8" standalone="no"?>
<!-- Generator: Adobe Illustrator 16.0.4, SVG Export Plug-In . SVG Version: 6.00 Build 0)  -->

<svg
   xmlns:dc="http://purl.org/dc/elements/1.1/"
   xmlns:cc="http://creativecommons.org/ns#"
   xmlns:rdf="http://www.w3.org/1999/02/22-rdf-syntax-ns#"
   xmlns:svg="http://www.w3.org/2000/svg"
   xmlns="http://www.w3.org/2000/svg"
   xmlns:sodipodi="http://sodipodi.sourceforge.net/DTD/sodipodi-0.dtd"
   xmlns:inkscape="http://www.inkscape.org/namespaces/inkscape"
   version="1.1"
   id="Logo_xA0_Image_1_"
   x="0px"
   y="0px"
   width="1730.553px"
   height="373.771px"
   viewBox="0 0 1730.553 373.771"
   enable-background="new 0 0 1730.553 373.771"
   xml:space="preserve"
   inkscape:version="0.48.2 r9819"
   sodipodi:docname="whfnlogo2.svg"><metadata
   id="metadata75"><rdf:RDF><cc:Work
       rdf:about=""><dc:format>image/svg+xml</dc:format><dc:type
         rdf:resource="http://purl.org/dc/dcmitype/StillImage" /></cc:Work></rdf:RDF></metadata><defs
   id="defs73" /><sodipodi:namedview
   pagecolor="#ffffff"
   bordercolor="#666666"
   borderopacity="1"
   objecttolerance="10"
   gridtolerance="10"
   guidetolerance="10"
   inkscape:pageopacity="0"
   inkscape:pageshadow="2"
   inkscape:window-width="1280"
   inkscape:window-height="752"
   id="namedview71"
   showgrid="false"
   inkscape:zoom="0.40680638"
   inkscape:cx="896.04874"
   inkscape:cy="189.36074"
   inkscape:window-x="0"
   inkscape:window-y="0"
   inkscape:window-maximized="1"
   inkscape:current-layer="Logo_xA0_Image_1_" />
<path
   style="fill:#ff9e03;stroke:none;stroke-width:1.10400000000000009;stroke-linecap:square;stroke-linejoin:miter;stroke-miterlimit:4;stroke-opacity:1;stroke-dasharray:none;stroke-dashoffset:0;fill-opacity:1"
   d="m 97.712331,62.812257 63.297929,237.213583 90.33781,0 50.39252,-147.49031 12.90541,38.71621 55.30886,-51.00707 -25.8108,-79.890585 -84.80693,1.229086 L 215.09004,198.01171 177.60292,62.812257 z"
   id="path3052"
   inkscape:connector-curvature="0" /><path
   fill-rule="evenodd"
   clip-rule="evenodd"
   fill="#FF9E03"
   d="M160.662,297.966c-0.3-1.119-0.598-2.243-0.896-3.363  c-1.229-1.171-1.072-2.703-1.664-4.041c-0.441-1.927-1.034-3.831-1.609-5.734c-0.389-1.839-1.037-3.64-1.482-5.471  c-0.189-0.689-0.434-1.369-0.654-2.056c-0.489-2.21-1.184-4.384-1.778-6.574c-0.851-3.188-1.792-6.354-2.631-9.545  c-0.108-0.441-0.329-0.868-0.391-1.319c-0.803-2.99-1.68-5.972-2.521-8.957c-0.29-1.584-0.939-3.104-1.249-4.685  c-0.045-0.532-0.24-1.044-0.425-1.557c-0.826-3.111-1.801-6.195-2.583-9.317c-1.354-4.927-2.829-9.835-4.163-14.767  c-0.386-1.615-0.903-3.206-1.347-4.809c-0.527-2.383-1.664-4.674-1.737-7.129c0.018-2.658-1.151-5.15-1.807-7.706  c-2.029-7.924-4.266-15.807-6.366-23.714c-0.162-0.606-0.296-1.203-0.217-1.826c0.196-1.084,1.118-1.481,2.36-1.568  c0.703-0.049,1.409-0.04,2.112-0.04c23.671,0,47.342,0,71.011,0c0.563,0,1.127-0.013,1.692,0.018  c2.121,0.101,2.702,0.512,3.074,2.176c1.373,6.168,3.305,12.248,4.686,18.409c0.035,0.172,0.09,0.351,0.167,0.517  c0.236,0.564,0.251,1.3,1.204,1.437c0.803,0.114,0.827-0.449,0.934-0.89c1.271-3.397,2.354-6.84,3.601-10.243  c0.213-0.584,0.396-1.181,0.923-1.658c1.084-2.549,2.231-5.073,3.046-7.688c0.625-2.003,1.227-2.398,3.83-2.4  c21.522-0.028,43.045-0.028,64.567-0.002c2.815,0.002,3.239,0.408,3.053,2.539c-0.729,3.483-2.116,6.84-3.268,10.241  c-0.79,2.327-1.498,4.669-2.359,6.981c-0.204,0.543-0.312,1.087-0.131,1.648c-0.682,3.252-2.102,6.352-3.119,9.535  c-0.172,0.536-0.396,1.069-0.551,1.61c-0.818,2.49-1.838,4.935-2.557,7.443c-2.152,5.533-3.816,11.173-5.958,16.702  c-0.407,1.161-0.709,2.341-1.141,3.498c-0.055,0.259-0.139,0.51-0.241,0.761c-1.749,4.526-3.259,9.109-4.779,13.683  c-0.044,0.174-0.103,0.345-0.166,0.516c-1.096,2.31-1.301,4.849-2.798,7.061c-0.35,0.246-0.641,0.189-0.887-0.108  c-0.455-0.912-0.016-1.803,0.274-2.633c2.403-6.923,4.691-13.87,7.061-20.8c1.832-5.362,3.429-10.773,5.21-16.146  c0.596-1.791-0.193-3.777,0.534-5.646c0.217-0.556-0.451-0.741-1.058-0.792c-0.703-0.057-1.41-0.036-2.114-0.036  c-18.063,0-36.126,0-54.188,0c-25.878-0.002-51.758,0-77.638,0c-0.492,0-0.987-0.005-1.481,0c-2.605,0.027-2.501,0.103-2.305,2.107  c1.437,14.654,6.862,28.7,10.31,43.049c1.133,4.725,2.354,9.445,3.826,14.113c2.302,7.329,3.947,14.781,6.108,22.134  c0.813,2.773,1.578,5.557,2.384,8.328C160.865,299.611,161.11,298.499,160.662,297.966z"
   id="path3" />
<path
   fill-rule="evenodd"
   clip-rule="evenodd"
   fill="#FF9E03"
   d="M264.854,256.858c0.169-2.128,0.837-4.184,1.612-6.207  c0.627-1.635,0.538-1.869-1.625-1.872c-8.186-0.013-16.373-0.006-24.558-0.006c-6.845,0-13.69,0-20.535,0  c-22.758,0-45.514,0-68.271,0c-3.16,0-3.093-0.011-2.448,2.352c1.516,5.555,2.965,11.122,4.421,16.69  c0.1,0.375,0.033,0.779,0.043,1.174c-1.149-2.051-1.406-4.287-2.02-6.441c-1.559-5.488-2.955-11.002-4.407-16.505  c-2.376-9-4.745-17.996-7.112-26.994c-0.315-1.2-0.929-2.419-0.837-3.603c0.146-1.911,0.222-3.77-0.396-5.64  c-0.174-0.531,0.367-0.791,1.046-0.786c0.565,0.006,1.13-0.005,1.694-0.005c22.782,0,45.565,0,68.347,0c22.465,0,44.93,0,67.393,0  c2.572,0,2.493-0.011,1.888,1.991c-0.365,1.206-0.803,2.364-0.219,3.741c0.529,1.244-0.636,2.577-1.049,3.862  c-2.295,7.136-4.672,14.256-7.04,21.375c-1.613,4.855-3.262,9.697-4.874,14.55c-0.142,0.423-0.136,0.883-0.198,1.324  c0.007,0.068,0.01,0.14,0.017,0.21C265.595,256.443,265.674,256.968,264.854,256.858z"
   id="path5" />




<g
   id="g15">
	<path
   fill="#FF9E03"
   d="M674.012,199.928h-80.71l9,100.866H517.38V62.045h84.922l-9,95.406h80.71l-10-95.406h83.171v238.749   h-83.171L674.012,199.928z"
   id="path17" />
</g>
<g
   id="g19">
	<path
   fill="#FF9E03"
   d="M781.38,62.145h185.008v51.021H859.214v39.532h75.624v45.251h-75.624v103.534H781.38V62.145z"
   id="path21" />
</g>
<g
   id="g23"
   transform="translate(-2,0)">
	<path
   clip-rule="evenodd"
   d="m 1269.794,281.311 c 0,5.964 0.014,11.926 -0.016,17.887 0,0.658 0.387,1.406 -0.551,1.949 -1.235,-0.728 -2.471,-1.447 -3.706,-2.174 -1.197,-0.795 -2.398,-1.594 -3.596,-2.389 -0.985,-0.983 -2.354,-1.677 -3.672,-2.411 -1.046,-0.965 -2.405,-1.693 -3.716,-2.46 -2.256,-1.785 -4.74,-3.391 -7.395,-4.873 -1.913,-1.473 -3.902,-2.892 -6.147,-4.124 -2.38,-1.542 -4.445,-3.327 -7.229,-4.551 -4.982,-3.277 -10.246,-6.32 -15.532,-9.346 -1.85,-1.241 -3.729,-2.465 -5.849,-3.482 -1.33,-0.24 -2.283,-0.871 -3.239,-1.512 -3.323,-2.231 -6.325,-4.695 -9.953,-6.706 -0.974,-0.543 -1.547,-1.34 -2.209,-2.075 -0.751,-1.006 -1.854,-1.889 -2.083,-3.074 -0.165,-0.776 -0.566,-1.531 -0.537,-2.34 -0.047,-1.037 -0.559,-2.033 -0.48,-3.096 0.088,-1.16 0.877,-1.812 2.438,-2.071 1.137,-0.186 2.291,-0.183 3.444,-0.183 21.255,-0.001 42.509,-0.001 63.763,0 0.658,0 1.319,-0.001 1.978,0.031 3.189,0.16 3.733,0.613 3.803,2.877 0.329,10.87 0.221,21.734 0.242,32.601 -10e-4,0.509 -0.19,1.043 0.242,1.522 z"
   id="path25"
   inkscape:connector-curvature="0"
   style="fill:#ff9e03;fill-rule:evenodd" />
	<path
   clip-rule="evenodd"
   d="m 1193.093,229.898 c 0,-14.007 0,-28.018 0,-42.028 0.443,-0.54 0.231,-1.131 0.234,-1.698 0.018,-4.977 0.05,-9.951 0,-14.928 -0.164,-16.135 0.315,-32.27 0.3,-48.41 0,-2.648 0.186,-5.309 0.205,-7.967 0,-0.343 -0.128,-0.745 0.207,-1.012 1.602,-1.269 1.75,-2.801 1.826,-4.385 0.05,-1.019 0.93,-1.551 2.374,-1.641 0.825,-0.051 1.646,-0.056 2.474,-0.056 20.606,0 41.214,0 61.825,0 0.738,0 1.481,0.015 2.222,0.03 1.79,0.042 2.748,0.669 2.795,1.933 0.052,1.339 0.133,2.648 1.427,3.769 0.476,0.415 0.307,1.007 0.31,1.524 0.024,6.242 0.254,12.486 0.307,18.728 0.031,3.453 0.16,6.902 0.193,10.354 0,16.559 0,33.11 0,49.668 -1.688,-0.442 -1.244,-1.5 -1.254,-2.34 -0.069,-5.149 -0.016,-10.29 -0.041,-15.44 -0.015,-3.064 -0.721,-6.108 -0.524,-9.179 0.074,-1.184 -0.828,-1.664 -2.435,-1.646 -0.74,0.009 -1.483,-0.009 -2.226,-0.009 -21.011,0 -42.025,0 -63.037,0 -0.412,0 -0.824,-0.002 -1.237,0.002 -3.701,0.037 -4.144,0.319 -4.159,2.896 -0.029,5.493 0.181,10.994 -0.045,16.483 -0.589,14.449 -0.566,28.899 -0.591,43.352 0,0.716 0.491,1.697 -1.153,2 z"
   id="path27"
   inkscape:connector-curvature="0"
   style="fill:#ff9e03;fill-rule:evenodd" />
	<path
   clip-rule="evenodd"
   d="m 1269.796,144.112 c -0.807,-0.515 -0.476,-1.192 -0.479,-1.802 -0.024,-5.095 -0.107,-10.188 0.015,-15.275 0.099,-4.105 -0.88,-8.181 -0.539,-12.283 0.026,-0.331 0,-0.865 -0.269,-0.978 -2.415,-0.998 -1.654,-2.63 -1.655,-4.062 -0.01,-1.062 -0.524,-1.395 -2.02,-1.395 -22.1,0.027 -44.197,0.027 -66.297,-0.004 -1.727,-0.005 -2.089,0.494 -2.028,1.557 0.088,1.535 0.489,3.178 -2.004,4.132 -0.265,0.101 -0.353,0.492 -0.422,0.76 -0.072,0.28 -0.025,0.577 -0.024,0.866 0.157,23.482 -0.871,46.956 -0.512,70.439 0.011,0.607 0.331,1.285 -0.467,1.803 0,-21.637 -0.438,-43.278 0.121,-64.915 0.506,-19.602 0.086,-39.196 0.313,-58.797 0.021,-1.645 0.807,-2.052 3.025,-2.051 23.414,0.051 46.826,0.055 70.237,-0.003 2.446,-0.006 3.051,0.579 3.048,2.207 -0.062,22.566 -0.054,45.128 -0.024,67.692 0,3.807 0.772,7.599 0.467,11.415 -0.393,0.151 -0.474,0.41 -0.486,0.694 z"
   id="path29"
   inkscape:connector-curvature="0"
   style="fill:#ff9e03;fill-rule:evenodd" />
	<path
   clip-rule="evenodd"
   d="m 1269.794,281.311 c -0.806,-0.512 -0.47,-1.19 -0.476,-1.799 -0.032,-3.467 -0.063,-6.935 -0.01,-10.404 0.128,-7.508 -0.189,-15.002 -0.449,-22.503 -0.043,-1.167 -0.816,-1.537 -2.109,-1.699 -0.803,-0.104 -1.642,-0.06 -2.465,-0.06 -21.745,-0.005 -43.489,-0.005 -65.238,-0.005 -4.617,0 -5.078,0.421 -4.143,3.661 0.145,0.505 0.108,1.033 0.156,1.551 -1.644,-0.741 -1.348,-1.972 -1.457,-3.048 -0.61,-5.948 0.01,-11.891 0.206,-17.841 0.115,-3.469 0.02,-6.939 0.021,-10.411 0,-4.862 -0.01,-9.723 0.01,-14.586 0.01,-1.964 0.675,-2.472 3.427,-2.584 1.646,-0.067 3.298,-0.028 4.948,-0.028 20.197,-0.002 40.399,0.013 60.598,-0.006 7.893,-0.006 6.412,0.16 6.475,4.457 0.145,10.178 0.377,20.354 0.264,30.537 0,0.451 -0.159,0.931 0.244,1.353 -10e-4,14.472 -10e-4,28.941 -10e-4,43.415 z"
   id="path31"
   inkscape:connector-curvature="0"
   style="fill:#ff9e03;fill-rule:evenodd" />
	<path
   clip-rule="evenodd"
   d="m 1269.794,237.896 c -0.753,-0.457 -0.47,-1.076 -0.479,-1.63 -0.033,-1.678 -0.067,-3.358 0,-5.034 0.355,-9.194 -0.749,-18.371 -0.474,-27.558 0.034,-1.223 -0.527,-1.58 -2.252,-1.578 -23.169,0.034 -46.339,0.034 -69.509,0.007 -2.269,-0.004 -3.041,0.667 -3.03,2.2 0.057,8.216 -0.084,16.431 0.069,24.646 0.089,4.686 -0.724,9.352 -0.443,14.019 0.145,2.357 -0.198,4.837 1.391,7.085 0.153,0.717 0.303,1.438 0.457,2.155 -1.084,-0.806 -1.273,-1.91 -1.958,-2.852 -0.167,-0.912 -0.33,-1.828 -0.499,-2.739 0.01,-5.577 0.021,-11.146 0.029,-16.719 0.749,-0.458 0.465,-1.073 0.474,-1.629 0.031,-2.139 0.048,-4.285 0.01,-6.425 -0.342,-18.337 0.816,-36.67 0.506,-55.01 -0.029,-1.86 0.619,-2.228 3.762,-2.228 13.857,-0.009 27.714,-0.003 41.571,-0.003 8.828,0 17.653,0.046 26.478,-0.033 2.3,-0.021 2.878,0.515 2.978,2.097 0.525,8.55 0.41,17.102 0.44,25.658 0,0.503 -0.206,1.056 0.484,1.454 0,14.708 0,29.409 0,44.117 z"
   id="path33"
   inkscape:connector-curvature="0"
   style="fill:#ff9e03;fill-rule:evenodd" />
</g>
<g
   id="g35">
	<path
   fill-rule="evenodd"
   clip-rule="evenodd"
   fill="#FF3333"
   d="M1188.953,254.373c0.79,3.446,2.31,6.669,5.361,9.347   c1.726,1.517,4.056,2.433,6.026,3.694c1.446,0.554,2.861,1.167,4.022,2.029c3.441,2.559,7.564,4.403,11.526,6.424   c3.438,2.213,7.44,3.803,11.177,5.694c5.405,2.731,10.731,5.531,15.904,8.517c5.044,2.914,10.06,5.865,15.131,8.756   c0.436,0.25,1.947,0.442,0.518,1.266c-0.399-0.002-0.797-0.004-1.195-0.003c-1.392-0.244-2.866-0.132-4.238-0.464   c-1.965-0.301-3.912-0.65-5.852-1.021c-1.378-0.326-2.789-0.554-4.194-0.808c-1.937-0.43-3.965-0.595-5.904-1.019   c-2.279-0.508-4.601-0.896-6.91-1.32c-2.882-0.599-5.855-0.905-8.743-1.489c-2.762-0.791-5.688-1.148-8.569-1.623   c-3.167-0.679-6.377-1.244-9.578-1.836c-2.861-0.462-5.699-0.999-8.529-1.556c-0.84-0.196-1.692-0.369-2.563-0.488   c-0.223-0.026-0.44-0.07-0.655-0.117c-5.133-0.795-10.133-1.972-15.282-2.717c-2.151-0.466-4.338-0.84-6.498-1.281   c-5.402-0.967-10.37-2.678-15.089-4.816c-6.993-3.646-13.834-7.447-20.328-11.597c-2.013-1.977-1.278-1.078-4.046-3.302   c-0.307-0.514-3.233-3.214-4.056-3.398c-0.643-0.218-1.251-0.481-1.914-0.665c-2.901-0.77-5.808-1.524-8.687-2.331"
   id="path37" />
	<path
   fill-rule="evenodd"
   clip-rule="evenodd"
   fill="#FF3333"
   d="M1115.787,258.248c-1.571-0.42-9.352-2.173-10.992-2.425   c-3.615-0.751-7.282-1.364-10.895-2.123c-1.293-0.476-2.711-0.838-3.142-2.064c0.41-1.673,1.25-2.26,3.598-2.559   c2.79-0.351,5.526-0.062,8.275,0.173c4.741,0.412,9.526,0.58,14.229,1.23c2.512,0.347,4.791,1.212,7.285,1.577   c1.025,0.151,2.025,0.319,3.1,0.259c3.17-0.174,3.633-0.711,2.512-3.033c-0.814-1.4-2.462-2.061-4.151-2.688   c-1.529-0.615-3.075-1.214-4.638-1.79c-2.582-0.92-5.107-1.924-7.721-2.792c-0.188-0.055-0.365-0.121-0.54-0.196   c-0.498-0.233-0.996-0.471-1.545-0.638c-1.068-0.388-2.205-0.662-3.231-1.12c-1.395-0.604-2.942-0.953-4.391-1.467   c-0.272-0.102-0.533-0.222-0.792-0.342c-1.64-0.615-3.312-1.16-5.073-1.559c-1.206-0.258-2.479-0.312-3.67-0.604   c-1.464-0.452-2.811-1.043-3.979-1.846c-0.394-0.269-0.791-0.533-1.181-0.803c-0.49-0.351-0.901-0.744-1.073-1.257   c-0.343-2.672,0.781-3.51,4.441-3.134c2.969,0.304,5.718,1.199,8.549,1.869c3.901,0.917,9.51,3.121,13.633,3.406   c1.713,1.289,15.635,4.191,14.936,2.934c-0.419-0.168-14.034-6.196-15.056-6.318c-0.888-0.107-1.658-0.443-2.501-0.638   c-2.639-0.622-5.146-1.471-7.679-2.279c-1.454-0.614-2.93-1.19-4.567-1.491c-2.057-0.801-4.069-1.666-6.172-2.403   c-0.951-0.424-2.053-0.717-2.469-1.614c-0.074-2.598,2.103-4.003,5.795-3.607c3.934,0.418,7.698,1.345,11.445,2.263   c9.225,2.267,17.833,5.569,26.578,8.644c0.877,0.306,1.746,0.635,2.668,0.851c1.683,0.4,1.943,0.208,1.881-1.3   c-1.742-1.931-3.874-3.591-6.102-5.183c-2.326-1.49-4.75-2.882-7.463-3.959c-1.949-0.708-3.789-1.563-5.799-2.174   c-1.901-0.594-3.621-1.481-5.632-1.898c-1.005-0.224-1.86-0.681-2.821-0.975c-1.134-0.634-2.859-0.785-3.072-2.169   c-0.032-2.831,1.021-3.599,4.567-3.027c4.083,0.66,7.782,2.134,11.667,3.219c6.131,1.717,11.967,3.941,17.767,6.174   c3.121,1.202,5.807,3.046,8.645,4.641c3.434,1.928,6.804,3.919,10.239,5.845c0.834,0.466,7.59,9.074,8.654,8.451   c1.03-0.6-4.826-9.648-5.125-10.42c-0.913-2.365-0.665-4.718,0.304-7.069c0.351-0.847,0.89-1.59,2.3-1.67   c1.575-0.091,1.509,0.866,1.798,1.572c1.062,2.632,3.011,4.658,6.087,6.182c2.481,1.232,4.338,2.984,5.464,5.176   c2.205,4.291,5.831,8.081,7.214,12.663c1.133,3.731,2.43,7.435,3.312,11.204c1.008,4.289,3.681,7.652,8.197,10.212   c1.115,0.631,2.039,1.452,3.052,2.188c-3.475-1.405-5.999-2.098-8.194-4.626c-2.188-2.521-6.831,6.333-7.495,3.384"
   id="path39" />
</g>
<g
   id="g41">
	<path
   fill-rule="evenodd"
   clip-rule="evenodd"
   fill="#FF3333"
   d="M1086.714,123.827"
   id="path43" />
	<path
   fill-rule="evenodd"
   clip-rule="evenodd"
   fill="#FF3333"
   d="M1061.01,138.749c-1.118-1.037-1.56-2.376-2.496-3.492   c-0.807-1.007-1.041-2.214-1.864-3.215c-2.84-4.977-6.808-9.317-12.061-12.939c-2.534-2.275-5.431-4.276-8.121-6.432   c-1.106-0.909-2.261-1.777-3.405-2.658c-0.659-0.539-1.33-1.068-2.142-1.479c-3.354-2.717-6.205-5.803-10.051-8.158   c-2.741-2.039-4.759-4.602-7.698-6.507c-3.103-2.426-5.812-5.134-9.074-7.438c-0.672-0.478-1.05-1.075-1.321-1.731   c-0.642-0.612-1.287-1.222-1.93-1.835c-0.223-0.403-0.424-0.812-0.414-1.263c0.115-5.685-0.316-11.368,0.234-17.045   c0.167-1.718,0.669-1.937,2.626-0.982c2.517,1.224,4.781,2.729,7.133,4.135c10.037,6,20.261,11.817,30.374,17.741   c0.576,0.338,1.045,0.784,1.684,1.06c6.846,4.002,13.729,7.97,20.527,12.021c6.189,3.692,13.047,5.742,20.885,6.447   c17.308,1.559,34.321,4.257,50.498,9.505c4.065,1.321,8.346,1.729,12.649,1.988c1.806,0.107,2.491,0.606,2.311,1.938   c0.019,1.533-1.839,1.812-2.917,2.598c-0.686,0.498-1.592,0.775-2.457,1.077c-0.713,0.2-1.414,0.428-2.144,0.593   c-4.683,0.915-9.193,0.201-13.666-0.861c-2.771-0.956-5.861-0.822-8.709-1.508c-2.546-0.536-5.001-0.413-7.338,0.598   c-2.743,1.37-3.801,3.615-4.986,5.787c-0.553,0.856-2.322,1.273-2.332,2.211c-0.007,0.66,1.761,1.871,0.894,2.335"
   id="path45" />
	<path
   fill-rule="evenodd"
   clip-rule="evenodd"
   fill="#FF3333"
   d="M1056.478,128.904"
   id="path47" />
	<path
   fill-rule="evenodd"
   clip-rule="evenodd"
   fill="#FF3333"
   d="M1058.514,135.257"
   id="path49" />
	<path
   fill-rule="evenodd"
   clip-rule="evenodd"
   fill="#FF3333"
   d="M1107.137,126.693c-1.144,6.294,2.428,13.102,2.428,13.102   c0.385,0.646,0.989,1.171,1.544,1.725c1.611,1.468,3.103,3.021,4.877,4.367c5.736,4.349,11.264,8.859,16.454,13.598   c2.646,2.413,5.059,4.994,6.535,8.008c0.368,0.755,0.856,1.488,0.646,2.341c-1.612,1.737-2.363,1.771-5.671,0.268   c-1.79-0.956-3.325-2.153-5.061-3.162c-1.907-1.662-4.202-2.987-6.389-4.408c-1.845-1.057-3.612-2.197-5.585-3.122   c-1.124-0.331-10.277-9.59-11.453-7.41c-0.413,1.166,8.271,9.383,9.292,10.217c2.838,2.302,6.139,4.212,8.964,6.528   c2.109,1.729,3.979,3.596,5.815,5.488c0.963,0.998,1.475,2.075,0.834,3.324c-0.403,0.508-1.012,0.796-1.747,0.932   c-1.474,0.033-2.793-0.329-4.002-0.959c-2.326-1.077-2.406-0.984-4.58-2.235c-3.22-1.874-1.628-1.441-4.979-3.181   c3.503,1.952-8.085-4.992-8.085-4.992c-1.308-1.005-9.659-7.753-10.76-8.904c-0.71-0.739,15.308,19.863,14.284,20.273   c-5.036,5.517-19.334-15.063-22.423-16.631c1.776,0.94,12.207,19.341,2.277,13.729c-22.154-26.753-31.606-38.131-31.839-40.331"
   id="path51" />
	<path
   fill-rule="evenodd"
   clip-rule="evenodd"
   fill="#FF3333"
   d="M1105.994,124.984"
   id="path53" />
</g>
<polygon
   fill="#FF9E03"
   points="1081.022,300.146 1000.38,300.146 1000.38,88.989 1081.022,169.853 "
   id="polygon55" />
<path
   fill-rule="evenodd"
   clip-rule="evenodd"
   fill="#FF9E03"
   d="M341.292,242.978"
   id="path57" />
<path
   fill="#FF3333"
   d="M450.247,300.673L482.66,62.264h-59.366l-8.345,15.456c9.235,14.294,7.63,33.281,2.691,47.973  c5.124,0.251,9.761-4.326,14.895-4.782c-2.691,5.704-7.441,9.16-13.549,11.74c1.091,4.366,4.58,9.068,8.213,12.147  c4.182,3.541,6.445,5.508,8.979,10.515c2.667,5.267,2.963,7.415-3.167,10.095c-3.173,1.386-8.375,1.231-8.323,5.31  c3.131,1.073,4.935,3.449,6.582,6.136c3.147,5.137-10.989,3.754-13.251,6.045c-3.232,3.276,7.918,2.704,7.095,6.443  c-0.691,3.134-10.018,3.432-12.762,5.381c5.166,7.717,9.642,16.393-2.596,21.89c-3.785,1.702-9.233,1.108-13.431,1.108  c-6.497-0.002-10.267-1.999-16.196-3.693c-12.218-3.485-29.963-4.773-41.481,0.95c-1.018,0.51-5.675,2.86-6.099,3.877l29.217,81.819  H450.247z"
   id="path59" />
<g
   id="g61">
	<path
   fill="#FF9E03"
   d="M1508.85,136.928c0,10.802-2.162,20.85-6.479,30.154c-4.322,9.307-10.42,17.405-18.292,24.299   c-7.877,6.891-17.528,12.292-28.962,16.196c-11.431,3.909-24.138,5.857-38.106,5.857h-40.776v87.37h-68.945V62.145h112.008   c13.969,0,26.545,1.956,37.727,5.859c11.176,3.908,20.578,9.193,28.2,15.852c7.62,6.666,13.461,14.592,17.528,23.778   C1506.814,116.826,1508.85,126.59,1508.85,136.928z M1450.489,139.444c0-10.857-3.429-14.798-10.289-21.246   c-6.859-6.447-15.003-6.527-27.959-6.527h-36.006v57.245h33.719c13.206,0,21.797-0.192,29.293-6.867   C1446.738,155.378,1450.489,150.981,1450.489,139.444z"
   id="path63" />
</g>
<line
   fill-rule="evenodd"
   clip-rule="evenodd"
   fill="#FF9E03"
   x1="207.706"
   y1="182.754"
   x2="130.638"
   y2="182.754"
   id="line65" />


<path
   style="fill:#ff9e03;fill-opacity:1;fill-rule:nonzero;stroke:none;stroke-opacity:1"
   d="m 1190.8774,62.417715 76.4804,0 0.2172,238.783845 -76.9149,-53.01479 1.3037,-185.117234 0,0"
   id="path3822"
   inkscape:connector-curvature="0" /></svg>