<?xml version="1.0" encoding="UTF-8" standalone="no"?>
<!-- Generator: Adobe Illustrator 16.0.4, SVG Export Plug-In . SVG Version: 6.00 Build 0)  -->

<svg
   xmlns:dc="http://purl.org/dc/elements/1.1/"
   xmlns:cc="http://creativecommons.org/ns#"
   xmlns:rdf="http://www.w3.org/1999/02/22-rdf-syntax-ns#"
   xmlns:svg="http://www.w3.org/2000/svg"
   xmlns="http://www.w3.org/2000/svg"
   xmlns:sodipodi="http://sodipodi.sourceforge.net/DTD/sodipodi-0.dtd"
   xmlns:inkscape="http://www.inkscape.org/namespaces/inkscape"
   version="1.1"
   id="Logo_xA0_Image_1_"
   x="0px"
   y="0px"
   width="1730.553px"
   height="373.771px"
   viewBox="0 0 1730.553 373.771"
   enable-background="new 0 0 1730.553 373.771"
   xml:space="preserve"
   inkscape:version="0.48.2 r9819"
   sodipodi:docname="whfnlogo.svg"
   inkscape:export-filename="/Users/lk/Downloads/Whfn logo_final_v2.png"
   inkscape:export-xdpi="68.976578"
   inkscape:export-ydpi="68.976578"><metadata
   id="metadata69"><rdf:RDF><cc:Work
       rdf:about=""><dc:format>image/svg+xml</dc:format><dc:type
         rdf:resource="http://purl.org/dc/dcmitype/StillImage" /><dc:title></dc:title></cc:Work></rdf:RDF></metadata><defs
   id="defs67" /><sodipodi:namedview
   pagecolor="#ffffff"
   bordercolor="#666666"
   borderopacity="1"
   objecttolerance="1"
   gridtolerance="1"
   guidetolerance="1"
   inkscape:pageopacity="0"
   inkscape:pageshadow="2"
   inkscape:window-width="1006"
   inkscape:window-height="640"
   id="namedview65"
   showgrid="true"
   inkscape:zoom="1.1506222"
   inkscape:cx="662.0791"
   inkscape:cy="180.97735"
   inkscape:window-x="0"
   inkscape:window-y="0"
   inkscape:window-maximized="0"
   inkscape:current-layer="Logo_xA0_Image_1_"><inkscape:grid
     type="xygrid"
     id="grid3046"
     empspacing="5"
     visible="true"
     enabled="true"
     snapvisiblegridlinesonly="true"
     originx="0px" /></sodipodi:namedview>
<path
   style="fill:#fe6633;fill-opacity:1;fill-rule:nonzero;stroke:none"
   d="m 98.126257,63.042377 62.792113,237.561683 90.27724,0.0815 55.16038,-162.71088 13.03642,45.68181 53.34071,-32.26516 L 344.81344,61.983167 267.35535,62.200441 213.79737,196.91017 178.59902,63.069536 z"
   id="path3048"
   inkscape:connector-curvature="0" />

<g
   id="g7">
	<path
   fill="#FE6633"
   d="M664.012,200.928h-61.71v99.866H517.38V62.045h84.922v96.406h61.71V62.045h83.171v238.749h-83.171V200.928z   "
   id="path9" />
</g>
<g
   id="g11">
	<path
   fill="#FE6633"
   d="M781.38,62.145h185.008v51.021H859.214v39.532h75.624v45.251h-75.624v103.534H781.38V62.145z"
   id="path13" />
</g>
<g
   id="g15">
	<path
   fill-rule="evenodd"
   clip-rule="evenodd"
   fill="#FE6633"
   d="M1202.484,243.418c0.229,3.528,1.212,6.952,3.796,10.084   c1.461,1.773,3.614,3.051,5.357,4.611c1.339,0.778,2.638,1.61,3.646,2.647c2.988,3.076,6.763,5.557,10.35,8.186   c3.039,2.734,6.736,4.944,10.121,7.41c4.898,3.561,9.708,7.177,14.337,10.952c4.512,3.684,8.99,7.399,13.534,11.064   c0.39,0.316,1.852,0.749,0.308,1.332c-0.394-0.065-0.785-0.131-1.179-0.194c-1.335-0.463-2.809-0.589-4.109-1.136   c-1.892-0.611-3.758-1.269-5.613-1.945c-1.308-0.542-2.664-0.992-4.011-1.468c-1.843-0.734-3.818-1.222-5.665-1.951   c-2.169-0.866-4.398-1.62-6.609-2.409c-2.749-1.052-5.636-1.831-8.393-2.869c-2.6-1.223-5.43-2.044-8.199-2.974   c-3.018-1.177-6.096-2.249-9.16-3.346c-2.751-0.914-5.466-1.898-8.171-2.9c-0.798-0.328-1.611-0.636-2.452-0.893   c-0.216-0.062-0.424-0.14-0.628-0.221c-4.939-1.606-9.687-3.568-14.65-5.128c-2.049-0.804-4.147-1.523-6.209-2.305   c-5.179-1.819-9.808-4.303-14.124-7.169c-6.319-4.719-12.463-9.566-18.209-14.701c-1.671-2.273-1.09-1.269-3.466-3.907   c-0.221-0.556-2.677-3.689-3.459-4.004c-0.6-0.317-1.158-0.675-1.783-0.962c-2.741-1.225-5.489-2.435-8.201-3.691"
   id="path17" />
	<path
   fill-rule="evenodd"
   clip-rule="evenodd"
   fill="#FE6633"
   d="M1129.641,235.532c-1.484-0.666-8.884-3.642-10.463-4.153   c-3.448-1.32-6.97-2.513-10.414-3.84c-1.2-0.676-2.542-1.261-2.771-2.54c0.673-1.586,1.596-2.031,3.961-1.95   c2.81,0.101,5.465,0.824,8.141,1.495c4.614,1.166,9.311,2.098,13.85,3.492c2.424,0.744,4.535,1.963,6.938,2.723   c0.987,0.313,1.948,0.64,3.019,0.752c3.156,0.336,3.699-0.12,2.965-2.592c-0.58-1.513-2.101-2.429-3.668-3.317   c-1.411-0.853-2.842-1.69-4.292-2.51c-2.401-1.321-4.733-2.716-7.174-3.991c-0.177-0.084-0.341-0.179-0.502-0.28   c-0.454-0.311-0.907-0.624-1.423-0.877c-0.992-0.554-2.07-1.007-3.011-1.623c-1.279-0.818-2.751-1.411-4.099-2.15   c-0.253-0.144-0.491-0.305-0.728-0.464c-1.52-0.87-3.084-1.676-4.758-2.351c-1.149-0.448-2.397-0.704-3.526-1.185   c-1.372-0.681-2.607-1.479-3.632-2.459c-0.345-0.328-0.695-0.652-1.036-0.98c-0.429-0.425-0.771-0.879-0.858-1.413   c0.089-2.692,1.333-3.339,4.886-2.382c2.882,0.774,5.451,2.099,8.139,3.213c3.705,1.529,8.888,4.603,12.912,5.544   c1.484,1.547,14.763,6.641,14.273,5.287c-0.387-0.233-12.861-8.363-13.85-8.647c-0.859-0.248-1.566-0.702-2.367-1.029   c-2.505-1.036-4.845-2.275-7.215-3.479c-1.337-0.84-2.701-1.645-4.27-2.203c-1.902-1.12-3.751-2.296-5.708-3.36   c-0.871-0.571-1.911-1.036-2.179-1.989c0.343-2.575,2.717-3.614,6.298-2.633c3.816,1.042,7.384,2.56,10.936,4.065   c8.743,3.714,16.712,8.352,24.852,12.786c0.817,0.442,1.622,0.906,2.498,1.267c1.597,0.665,1.885,0.517,2.064-0.982   c-1.411-2.185-3.249-4.164-5.193-6.092c-2.058-1.844-4.228-3.605-6.733-5.103c-1.811-1.011-3.489-2.149-5.376-3.074   c-1.781-0.891-3.337-2.042-5.255-2.775c-0.956-0.382-1.728-0.97-2.629-1.413c-1.018-0.808-2.697-1.233-2.686-2.633   c0.421-2.8,1.583-3.39,4.993-2.258c3.925,1.306,7.34,3.353,11.001,5.045c5.777,2.676,11.182,5.806,16.55,8.938   c2.888,1.687,5.244,3.937,7.79,5.965c3.081,2.452,6.089,4.957,9.172,7.408c0.748,0.594,6.039,10.172,7.189,9.728   c1.113-0.427-3.219-10.297-3.391-11.105c-0.522-2.481,0.099-4.764,1.432-6.93c0.481-0.78,1.132-1.428,2.537-1.28   c1.569,0.162,1.351,1.097,1.523,1.84c0.627,2.768,2.226,5.08,5.019,7.076c2.252,1.613,3.804,3.64,4.565,5.983   c1.489,4.589,4.462,8.91,5.094,13.654c0.521,3.864,1.208,7.728,1.477,11.59c0.308,4.396,2.408,8.143,6.457,11.393   c1,0.801,1.78,1.76,2.662,2.648c-3.205-1.943-5.586-3.031-7.349-5.878c-1.757-2.839-7.757,5.158-7.94,2.141"
   id="path19" />
</g>
<g
   id="g21">
	<path
   fill-rule="evenodd"
   clip-rule="evenodd"
   fill="#FE6633"
   d="M1086.714,123.827"
   id="path23" />
	<path
   fill-rule="evenodd"
   clip-rule="evenodd"
   fill="#FE6633"
   d="M1061.01,138.749c-1.118-1.037-1.56-2.376-2.496-3.492   c-0.807-1.007-1.041-2.214-1.864-3.215c-2.84-4.977-6.808-9.317-12.061-12.939c-2.534-2.275-5.431-4.276-8.121-6.432   c-1.106-0.909-2.261-1.777-3.405-2.658c-0.659-0.539-1.33-1.068-2.142-1.479c-3.354-2.717-6.205-5.803-10.051-8.158   c-2.741-2.039-4.759-4.602-7.698-6.507c-3.103-2.426-5.812-5.134-9.074-7.438c-0.672-0.478-1.05-1.075-1.321-1.731   c-0.642-0.612-1.287-1.222-1.93-1.835c-0.223-0.403-0.424-0.812-0.414-1.263c0.115-5.685-0.316-11.368,0.234-17.045   c0.167-1.718,0.669-1.937,2.626-0.982c2.517,1.224,4.781,2.729,7.133,4.135c10.037,6,20.261,11.817,30.374,17.741   c0.576,0.338,1.045,0.784,1.684,1.06c6.846,4.002,13.729,7.97,20.527,12.021c6.189,3.692,13.047,5.742,20.885,6.447   c17.308,1.559,34.321,4.257,50.498,9.505c4.065,1.321,8.346,1.729,12.649,1.988c1.806,0.107,2.491,0.606,2.311,1.938   c0.019,1.533-1.839,1.812-2.917,2.598c-0.686,0.498-1.592,0.775-2.457,1.077c-0.713,0.2-1.414,0.428-2.144,0.593   c-4.683,0.915-9.193,0.201-13.666-0.861c-2.771-0.956-5.861-0.822-8.709-1.508c-2.546-0.536-5.001-0.413-7.338,0.598   c-2.743,1.37-3.801,3.615-4.986,5.787c-0.553,0.856-2.322,1.273-2.332,2.211c-0.007,0.66,1.761,1.871,0.894,2.335"
   id="path25" />
	<path
   fill-rule="evenodd"
   clip-rule="evenodd"
   fill="#FE6633"
   d="M1056.478,128.904"
   id="path27" />
	<path
   fill-rule="evenodd"
   clip-rule="evenodd"
   fill="#FE6633"
   d="M1058.514,135.257"
   id="path29" />
	<path
   fill-rule="evenodd"
   clip-rule="evenodd"
   fill="#FE6633"
   d="M1107.137,126.693c-1.144,6.294,2.428,13.102,2.428,13.102   c0.385,0.646,0.989,1.171,1.544,1.725c1.611,1.468,3.103,3.021,4.877,4.367c5.736,4.349,11.264,8.859,16.454,13.598   c2.646,2.413,5.059,4.994,6.535,8.008c0.368,0.755,0.856,1.488,0.646,2.341c-1.612,1.737-2.363,1.771-5.671,0.268   c-1.79-0.956-3.325-2.153-5.061-3.162c-1.907-1.662-4.202-2.987-6.389-4.408c-1.845-1.057-3.612-2.197-5.585-3.122   c-1.124-0.331-10.277-9.59-11.453-7.41c-0.413,1.166,8.271,9.383,9.292,10.217c2.838,2.302,6.139,4.212,8.964,6.528   c2.109,1.729,3.979,3.596,5.815,5.488c0.963,0.998,1.475,2.075,0.834,3.324c-0.403,0.508-1.012,0.796-1.747,0.932   c-1.474,0.033-2.793-0.329-4.002-0.959c-2.326-1.077-2.406-0.984-4.58-2.235c-3.22-1.874-1.628-1.441-4.979-3.181   c3.503,1.952-8.085-4.992-8.085-4.992c-1.308-1.005-9.659-7.753-10.76-8.904c-0.71-0.739,15.308,19.863,14.284,20.273   c-5.036,5.517-19.334-15.063-22.423-16.631c1.776,0.94,12.207,19.341,2.277,13.729c-22.154-26.753-31.606-38.131-31.839-40.331"
   id="path31" />
	<path
   fill-rule="evenodd"
   clip-rule="evenodd"
   fill="#FE6633"
   d="M1105.994,124.984"
   id="path33" />
</g>
<polygon
   fill="#FE6633"
   points="1081.022,300.146 1000.38,300.146 1000.38,88.989 1081.022,169.853 "
   id="polygon35" />
<path
   fill-rule="evenodd"
   clip-rule="evenodd"
   fill="#FE6633"
   d="M341.292,242.978"
   id="path37" />
<path
   fill="#FE6633"
   d="M450.247,300.673L482.66,62.264h-59.366l-8.345,15.456c9.235,14.294,7.63,33.281,2.691,47.973  c5.124,0.251,9.761-4.326,14.895-4.782c-2.691,5.704-7.441,9.16-13.549,11.74c1.091,4.366,4.58,9.068,8.213,12.147  c4.182,3.541,6.445,5.508,8.979,10.515c2.667,5.267,2.963,7.415-3.167,10.095c-3.173,1.386-8.375,1.231-8.323,5.31  c3.131,1.073,4.935,3.449,6.582,6.136c3.147,5.137-10.989,3.754-13.251,6.045c-3.232,3.276,7.918,2.704,7.095,6.443  c-0.691,3.134-10.018,3.432-12.762,5.381c5.166,7.717,9.642,16.393-2.596,21.89c-3.785,1.702-9.233,1.108-13.431,1.108  c-6.497-0.002-10.267-1.999-16.196-3.693c-12.218-3.485-29.963-4.773-41.481,0.95c-1.018,0.51-5.675,2.86-6.099,3.877l29.217,81.819  H450.247z"
   id="path39" />
<g
   id="g41">
	<path
   fill="#FE6633"
   d="M1508.85,136.928c0,10.802-2.162,20.85-6.479,30.154c-4.322,9.307-10.42,17.405-18.292,24.299   c-7.877,6.891-17.528,12.292-28.962,16.196c-11.431,3.909-24.138,5.857-38.106,5.857h-40.776v87.37h-68.945V62.145h112.008   c13.969,0,26.545,1.956,37.727,5.859c11.176,3.908,20.578,9.193,28.2,15.852c7.62,6.666,13.461,14.592,17.528,23.778   C1506.814,116.826,1508.85,126.59,1508.85,136.928z M1450.489,139.444c0-10.857-3.429-14.798-10.289-21.246   c-6.859-6.447-15.003-6.527-27.959-6.527h-36.006v57.245h33.719c13.206,0,21.797-0.192,29.293-6.867   C1446.738,155.378,1450.489,150.981,1450.489,139.444z"
   id="path43" />
</g>



<polygon
   fill-rule="evenodd"
   clip-rule="evenodd"
   fill="#FE6633"
   points="1269.644,300.673 1197.133,210.674 1196.556,63.013   1269.779,63.013 "
   id="polygon51" />


<path
   fill-rule="evenodd"
   clip-rule="evenodd"
   fill="#FEB198"
   d="M1448.292,372.577c-0.049-0.3-0.074-0.601-0.078-0.904  c2.332,0,4.666,0,6.999,0C1453.12,373.617,1450.605,372.328,1448.292,372.577z"
   id="path57" />

<g
   id="g61">
	<path
   fill="#FE6633"
   d="M697.968,270.297c-13.571-26.989-34.659-56.763-68.871-54.164c-30.636,2.327-48.564,29.313-61.061,54.164   c-12.346-13.964-24.69-27.929-37.035-41.894c19.064-39.873,49.54-82.822,98.141-85.186c52.084-2.533,85.795,43.213,105.861,85.186   C722.659,242.368,710.314,256.333,697.968,270.297z"
   id="path63" />
</g>
</svg>