<?xml version="1.0" encoding="UTF-8" standalone="no"?>
<!-- Created with Inkscape (http://www.inkscape.org/) -->

<svg
   xmlns:dc="http://purl.org/dc/elements/1.1/"
   xmlns:cc="http://creativecommons.org/ns#"
   xmlns:rdf="http://www.w3.org/1999/02/22-rdf-syntax-ns#"
   xmlns:svg="http://www.w3.org/2000/svg"
   xmlns="http://www.w3.org/2000/svg"
   xmlns:sodipodi="http://sodipodi.sourceforge.net/DTD/sodipodi-0.dtd"
   xmlns:inkscape="http://www.inkscape.org/namespaces/inkscape"
   id="svg3020"
   version="1.1"
   inkscape:version="0.48.2 r9819"
   width="1880.192"
   height="1880.192"
   sodipodi:docname="facebook-logo.svg"
   inkscape:export-filename="/Users/lk/www/treloganyoga/src/img/facebook-logo.png"
   inkscape:export-xdpi="12.615324"
   inkscape:export-ydpi="12.615324">
  <metadata
     id="metadata3026">
    <rdf:RDF>
      <cc:Work
         rdf:about="">
        <dc:format>image/svg+xml</dc:format>
        <dc:type
           rdf:resource="http://purl.org/dc/dcmitype/StillImage" />
        <dc:title></dc:title>
      </cc:Work>
    </rdf:RDF>
  </metadata>
  <defs
     id="defs3024" />
  <sodipodi:namedview
     pagecolor="#ffffff"
     bordercolor="#666666"
     borderopacity="1"
     objecttolerance="10"
     gridtolerance="10"
     guidetolerance="10"
     inkscape:pageopacity="0"
     inkscape:pageshadow="2"
     inkscape:window-width="1052"
     inkscape:window-height="685"
     id="namedview3022"
     showgrid="false"
     inkscape:zoom="0.16303164"
     inkscape:cx="2164.2255"
     inkscape:cy="803.43592"
     inkscape:window-x="0"
     inkscape:window-y="0"
     inkscape:window-maximized="0"
     inkscape:current-layer="svg3020"
     fit-margin-top="0"
     fit-margin-left="0"
     fit-margin-right="0"
     fit-margin-bottom="0" />
  <g
     style="fill:#1a1a1a;fill-opacity:1"
     transform="matrix(2.5049929,0,0,2.5242026,299.1705,372.47756)"
     id="g70">
	<g
   style="fill:#1a1a1a;fill-opacity:1"
   id="g72">
		
		
		<path
   id="path78"
   style="fill:#1a1a1a;fill-opacity:1"
   d="m 350.095,176.994 c -17.078,0 -30.921,19.924 -30.921,44.506 0,24.589 13.843,44.52 30.921,44.52 17.079,0 30.922,-19.931 30.922,-44.52 10e-4,-24.582 -13.842,-44.488 -30.922,-44.506 z m -165.918,0 c -17.079,0 -30.924,19.924 -30.924,44.506 0,24.589 13.846,44.52 30.924,44.52 17.078,0 30.922,-19.931 30.922,-44.52 0,-24.582 -13.845,-44.488 -30.922,-44.506 z M 424.598,77.953 c 3.946,-12.739 9.222,-41.029 -5.26,-77.244 0,0 -25.548,-8.113 -83.339,30.565 -22.645,-5.656 -46.731,-8.453 -70.859,-8.453 -26.547,0 -53.372,3.383 -78.393,10.244 C 127.117,-7.618 100.791,0.717 100.791,0.717 83.604,43.69 94.228,75.508 97.46,83.411 c -20.196,21.797 -32.528,49.623 -32.528,83.738 0,25.757 2.933,48.86 10.097,68.943 l 7.532,17.061 c 20.129,37.527 59.824,61.766 130.437,69.377 -10.022,6.729 -20.245,18.18 -24.389,37.556 -13.66,6.533 -56.891,22.479 -82.833,-22.14 0,0 -14.521,-26.551 -42.312,-28.627 0,0 -26.96,-0.414 -1.863,16.801 0,0 18.04,8.501 30.488,40.443 0,0 16.236,54.492 94.59,37.008 v 56.28 c 0,0 -1.655,19.907 -19.906,26.54 0,0 -10.781,7.473 0.835,11.609 0,0 50.589,4.149 50.589,-37.318 v -61.371 c 0,0 -2.007,-24.338 9.952,-32.802 v 100.806 c 0,0 -0.827,24.056 -13.267,33.176 0,0 -8.301,14.923 9.947,10.785 0,0 34.833,-4.979 36.493,-45.615 l 0.789,-102.014 h 8.373 l 0.796,102.014 c 1.658,40.636 36.491,45.615 36.491,45.615 18.24,4.138 9.949,-10.785 9.949,-10.785 -12.441,-9.125 -13.268,-33.176 -13.268,-33.176 V 367.38 c 11.948,9.312 9.949,31.933 9.949,31.933 v 61.369 c 0,41.471 50.592,37.316 50.592,37.316 11.605,-4.139 0.832,-11.604 0.832,-11.604 C 347.576,479.76 345.92,459.852 345.92,459.852 V 379.41 c 0,-31.371 -13.209,-47.989 -26.131,-56.755 75.307,-7.469 111.444,-31.782 128.094,-69.564 l 5.946,-16.865 c 5.583,-20.118 7.262,-43.271 7.262,-69.088 10e-4,-37.024 -13.91,-66.645 -36.493,-89.185 z m -160.063,230.69 c -82.092,0 -148.627,-12.355 -148.627,-91.684 0,-18.991 9.354,-36.625 25.371,-51.259 26.725,-24.389 71.947,-11.475 123.253,-11.475 51.078,-0.008 96.148,-13.053 122.906,11.168 l 0.01,0.008 c 16.219,14.696 25.706,32.441 25.706,51.559 0.002,89.269 -66.539,91.683 -148.619,91.683 z m 366.6131,-83.7726 c 0,205.68899 -168.02255,372.43287 -375.28888,372.43287 -207.266337,0 -375.2889,-166.74388 -375.2889,-372.43287 0,-205.688987 168.022563,-372.43287 375.2889,-372.43287 207.26633,0 375.28888,166.743883 375.28888,372.43287 z" />

	</g>

</g>
</svg>
